<?xml version="1.0" encoding="UTF-8" standalone="no"?>
<!-- Created with Inkscape (http://www.inkscape.org/) -->

<svg
   xmlns:osb="http://www.openswatchbook.org/uri/2009/osb"
   xmlns:dc="http://purl.org/dc/elements/1.1/"
   xmlns:cc="http://creativecommons.org/ns#"
   xmlns:rdf="http://www.w3.org/1999/02/22-rdf-syntax-ns#"
   xmlns:svg="http://www.w3.org/2000/svg"
   xmlns="http://www.w3.org/2000/svg"
   xmlns:sodipodi="http://sodipodi.sourceforge.net/DTD/sodipodi-0.dtd"
   xmlns:inkscape="http://www.inkscape.org/namespaces/inkscape"
   width="64"
   height="64"
   viewBox="0 0 64 64.000002"
   id="svg2"
   version="1.1"
   inkscape:version="0.91 r13725"
   sodipodi:docname="enemy_vampire.svg">
  <defs
     id="defs4">
    <linearGradient
       id="linearGradient4186"
       osb:paint="solid">
      <stop
         style="stop-color:#3d748b;stop-opacity:1;"
         offset="0"
         id="stop4188" />
    </linearGradient>
  </defs>
  <sodipodi:namedview
     id="base"
     pagecolor="#ffffff"
     bordercolor="#666666"
     borderopacity="1.0"
     inkscape:pageopacity="0.0"
     inkscape:pageshadow="2"
     inkscape:zoom="5.6568542"
     inkscape:cx="16.525923"
     inkscape:cy="26.572914"
     inkscape:document-units="px"
     inkscape:current-layer="layer1"
     showgrid="true"
     units="px"
     inkscape:showpageshadow="false"
     inkscape:snap-bbox="true"
     inkscape:bbox-nodes="true"
     inkscape:object-nodes="true"
     inkscape:window-width="1024"
     inkscape:window-height="745"
     inkscape:window-x="-8"
     inkscape:window-y="-8"
     inkscape:window-maximized="1">
    <inkscape:grid
       type="xygrid"
       id="grid3336"
       spacingx="2"
       spacingy="2.0000001"
       empspacing="1" />
  </sodipodi:namedview>
  <metadata
     id="metadata7">
    <rdf:RDF>
      <cc:Work
         rdf:about="">
        <dc:format>image/svg+xml</dc:format>
        <dc:type
           rdf:resource="http://purl.org/dc/dcmitype/StillImage" />
        <dc:title></dc:title>
      </cc:Work>
    </rdf:RDF>
  </metadata>
  <g
     inkscape:label="Layer 1"
     inkscape:groupmode="layer"
     id="layer1"
     transform="translate(0,-988.3622)">
    <g
       transform="matrix(0.14390893,0,0,0.13576348,-1.6457576,988.05302)"
       id="g5289">
      <path
         style="fill:#424b59"
         d="m 196.70514,458.56536 c -1.68788,-0.60198 -2.30514,-1.2831 -2.30514,-2.54367 0,-2.17599 3.72762,-7.08432 7.19324,-9.47169 1.55426,-1.07067 3.3624,-3.60132 4.06765,-5.69298 0.27946,-0.82887 0.57491,-2.51952 0.65656,-3.75702 l 0.14844,-2.25 -1.85427,-3.3 c -6.20095,-11.03565 -11.73097,-24.66312 -16.25229,-40.05 -1.74455,-5.93703 -1.80634,-6.26427 -1.78397,-9.45 0.027,-3.8418 0.4313,-9.98028 1.11272,-16.89318 l 0.48233,-4.89321 -1.99011,-1.96095 C 175.36459,347.64534 167.875,324.9768 164.98452,294.15 c -0.18566,-1.98 -0.40461,-3.6675 -0.48656,-3.75 -0.1535,-0.15453 -0.94536,0.68896 -2.1173,2.25537 -0.54184,0.72422 -0.72315,0.81268 -0.95186,0.46437 -0.66285,-1.00949 -1.0041,-5.65762 -0.84817,-11.55298 0.18544,-7.01083 1.15082,-13.36804 3.23708,-21.31676 0.69291,-2.64 1.63275,-6.21986 2.08853,-7.95524 2.62669,-10.00101 3.8077,-19.8981 3.27676,-27.45977 -0.27395,-3.9015 -0.77858,-6.73499 -1.19948,-6.73499 -0.14672,0 -0.48227,0.77625 -0.74568,1.725 -0.26341,0.94875 -0.54657,1.9275 -0.62924,2.175 -0.67713,2.02698 -1.37952,6.83761 -1.52499,10.44449 -0.14074,3.48983 -0.24489,4.22058 -0.55581,3.9 -1.55778,-1.60615 -2.10498,-11.39746 -1.04607,-18.71793 0.35614,-2.46211 0.72814,-4.80045 0.82666,-5.1963 0.53517,-2.15045 -2.24817,1.95911 -5.20451,7.68438 -1.08924,2.10945 -2.11853,3.88713 -2.28729,3.9504 -0.20333,0.0762 -0.25108,-0.93583 -0.14154,-3 0.1691,-3.18675 1.31557,-7.57773 2.68122,-10.26911 0.32207,-0.63474 0.51147,-1.22819 0.42089,-1.31877 -0.0906,-0.0906 -0.97786,0.20024 -1.97173,0.64626 -2.8717,1.28874 -5.45954,1.04001 -7.01053,-0.6738 -0.73247,-0.80938 -0.40551,-1.24962 0.92809,-1.24962 7.71728,0 15.27531,-19.59669 18.57043,-48.15 0.34202,-2.96367 0.52527,-6.90692 0.53676,-11.55 0.0159,-6.41277 -0.0834,-7.84992 -1.09875,-15.9 -2.17106,-17.21371 -2.79715,-26.45413 -2.54084,-37.5 0.18486,-7.967043 0.51324,-12.105498 1.43973,-18.144393 1.94307,-12.665001 5.15679,-22.141773 9.97189,-29.405607 6.43984,-9.714834 16.81653,-16.623354 28.57714,-19.025889 1.58738,-0.32428 2.91915,-0.631114 2.95949,-0.681855 0.0404,-0.05074 0.45697,-0.7566 0.92584,-1.568576 2.03086,-3.517016 5.56523,-5.923207 11.01083,-7.496154 9.60246,-2.773644 17.89681,-2.289458 25.42449,1.484165 4.78319,2.397811 10.64998,7.600344 14.64157,12.983808 5.82303,7.853505 11.13472,18.965727 15.46974,32.363115 7.49336,23.158251 8.72362,43.989946 4.38411,74.234866 -0.48875,3.40641 -1.76522,11.43891 -2.83659,17.85 -1.07138,6.41108 -2.28189,13.79592 -2.69001,16.41073 l -0.74204,4.75422 3.90478,4.28125 c 5.29173,5.80192 9.32391,10.90706 10.40919,13.17908 3.59452,7.52508 4.16548,15.62378 1.48271,21.03124 -1.33675,2.69437 -10.94055,14.67234 -15.91938,19.85481 l -1.49371,1.55482 0.20372,2.49518 c 0.11205,1.37236 0.53787,5.66769 0.94626,9.54519 1.42137,13.49521 1.67902,17.55679 1.84977,29.15995 0.22097,15.01544 -0.31236,24.12512 -2.18315,37.29005 -1.69954,11.95977 -4.17746,21.94008 -7.49973,30.20664 -0.72998,1.81635 -1.32724,3.55575 -1.32724,3.86529 0,0.79332 1.95484,11.06169 2.9996,15.7563 0.49123,2.20731 1.34045,7.99011 1.93847,13.2 3.496,30.45696 4.39882,37.57932 5.71953,45.12177 0.84992,4.85376 2.05487,9.88605 2.62046,10.94391 0.62731,1.17333 10.69327,9.29688 19.12194,15.43203 2.5575,1.86156 4.69158,3.56283 4.74243,3.7806 0.12936,0.55428 -2.7039,0.86802 -5.91929,0.65547 -6.83538,-0.45186 -14.94983,-3.44403 -22.91701,-8.45061 -1.45414,-0.91377 -2.74946,-1.6614 -2.87851,-1.6614 -0.69832,0 -1.30566,1.31145 -1.45208,3.13551 -0.14426,1.79721 -0.21578,1.96449 -0.83995,1.96449 -1.26348,0 -2.9613,-2.72877 -4.37249,-7.02753 -0.70811,-2.15703 -0.70895,-2.13807 0.3551,-7.97247 0.32823,-1.79973 0.17163,-4.03107 -0.46319,-6.6 -0.22426,-0.9075 -0.5585,-3.26679 -0.74277,-5.24283 -0.42152,-4.52031 -2.46748,-19.0722 -4.97813,-35.40717 -3.02334,-19.67058 -3.60035,-23.21625 -3.81272,-23.42862 -0.33601,-0.336 -4.97461,3.20607 -6.97365,5.32515 -3.31055,3.50937 -5.48133,7.20627 -7.70516,13.12215 -1.47967,3.93624 -1.84293,4.63074 -2.82704,5.40483 -1.53976,1.21116 -3.85233,0.55857 -4.75401,-1.34157 -0.84754,-1.78608 -1.14703,-4.95426 -0.78388,-8.29239 0.17729,-1.62969 0.32235,-3.09279 0.32235,-3.25131 0,-0.52647 -0.78607,-0.29817 -1.46626,0.42585 -1.22543,1.3044 -1.58719,3.23085 -1.72497,9.18591 -0.19936,8.61684 -0.37344,9.24225 -2.46336,8.85018 -4.07151,-0.76383 -7.9783,-4.9344 -10.4337,-11.13816 -0.60739,-1.53459 -1.20029,-2.73087 -1.31755,-2.65842 -0.11727,0.0725 -0.36662,0.91134 -0.55412,1.86408 -0.64152,3.25998 -2.96946,7.16736 -3.63174,6.09576 -0.14028,-0.22698 -0.34514,-1.01343 -0.45524,-1.74762 -0.22615,-1.50804 -1.35489,-4.28589 -2.64763,-6.51582 -1.34228,-2.3154 -3.49953,-5.25 -3.85932,-5.25 -0.62141,0 0.6046,10.16619 2.02602,16.8 2.02555,9.45333 3.91256,14.21646 12.18226,30.75 4.52058,9.03795 5.98292,11.78868 7.01739,13.2 2.53183,3.45414 3.49094,9.55827 2.2097,14.06331 -0.44253,1.55604 -1.51223,2.58669 -2.68471,2.58669 -0.80647,0 -1.00549,-0.16995 -1.49305,-1.275 -0.3094,-0.70125 -0.72066,-2.18625 -0.91393,-3.3 -0.21639,-1.2471 -0.49711,-2.025 -0.73072,-2.025 -0.20864,0 -0.71769,0.50625 -1.13123,1.125 -3.66657,5.48601 -10.5784,9.67605 -18.22784,11.04996 -2.82852,0.50802 -4.04949,0.50589 -5.49486,-0.01 z m 25.31438,-132.84735 c -0.72033,-2.13306 -0.77865,-2.91801 -0.21676,-2.91801 0.56069,0 1.32026,1.62954 1.70864,3.66564 0.37356,1.9584 1.1479,3.1293 1.88293,2.84724 1.1277,-0.43275 0.9274,-2.76447 -0.5656,-6.58443 -0.42397,-1.08477 -0.47251,-1.50468 -0.20488,-1.77231 0.59993,-0.59991 1.18428,0.21264 2.04333,2.84136 0.89626,2.7426 1.51877,3.9084 1.946,3.64434 1.00748,-0.62265 -0.41307,-5.09151 -3.28199,-10.32477 -1.13583,-2.07189 -3.24803,-5.92707 -4.69377,-8.56707 -1.44574,-2.64 -3.44024,-6.07872 -4.43223,-7.64157 -2.4663,-3.8856 -4.67769,-8.59212 -8.58179,-18.26466 -3.2873,-8.14441 -3.32233,-8.25742 -4.64948,-15 -4.1912,-21.29341 -5.62459,-34.56904 -4.96916,-46.02296 0.34424,-6.01576 0.77836,-8.97414 2.54168,-17.32081 2.45181,-11.60566 4.43247,-18.21957 6.27702,-20.96056 l 0.94791,-1.40859 -0.86456,-1.64042 c -0.75927,-1.44066 -0.84323,-1.85146 -0.68946,-3.37328 0.0963,-0.95307 0.65454,-2.89109 1.24054,-4.30671 0.586,-1.41562 1.27949,-3.47083 1.54109,-4.56714 0.56028,-2.34797 0.68062,-9.49696 0.17507,-10.40033 -0.29865,-0.53365 -0.50637,-0.39443 -2.4801,1.6623 -4.95748,5.16593 -8.25158,11.77559 -10.6128,21.29473 -1.07042,4.31534 -3.72212,20.07675 -5.12291,30.45 -1.14914,8.50971 -1.4558,13.88875 -1.26561,22.2 0.23783,10.39339 0.98474,16.8108 3.6662,31.5 1.56299,8.56215 2.57853,12.61688 4.92152,19.65 3.51172,10.54145 7.30805,18.31974 13.56009,27.78333 4.21345,6.37782 7.17803,11.27001 8.8318,14.57439 0.60345,1.20576 1.25031,2.38359 1.43747,2.61741 0.63151,0.78891 0.57008,-1.70196 -0.0902,-3.65712 z M 267.525,260.57298 c 2.02276,-0.85373 1.6757,-1.37298 -0.91766,-1.37298 -1.43226,0 -2.39461,-0.14905 -2.775,-0.4298 -0.79369,-0.5858 -0.44341,-0.84426 2.41766,-1.78395 2.61374,-0.85845 4.35,-1.7832 4.35,-2.31683 0,-0.37927 -0.19758,-0.33059 -3.08865,0.76091 -2.03387,0.76787 -3.6971,1.01292 -3.37873,0.49779 0.0924,-0.14952 1.05398,-0.68646 2.13682,-1.19318 2.43777,-1.14077 3.73056,-2.04364 3.73056,-2.60537 0,-0.64792 -0.82639,-0.53171 -4.55053,0.63988 -2.67836,0.8426 -3.67581,1.02873 -4.70217,0.87747 -1.43189,-0.21103 -3.77727,-1.12911 -4.06218,-1.59009 -0.0995,-0.16106 1.33684,-1.30462 3.19195,-2.54125 6.8203,-4.54646 12.09259,-9.65635 20.18742,-19.56558 6.99568,-8.5637 9.42134,-12.27979 10.81783,-16.57278 0.81004,-2.49018 0.8212,-2.6188 0.46891,-5.40801 -0.96409,-7.63322 -5.09034,-15.50445 -11.5428,-22.01904 -1.36198,-1.3751 -3.43749,-3.64767 -4.61225,-5.05017 -2.52849,-3.01867 -9.99692,-10.36949 -13.59751,-13.38338 -6.19186,-5.18292 -14.18616,-10.92913 -14.61221,-10.50308 -0.21386,0.21386 0.99609,12.13131 1.31641,12.96605 0.089,0.23194 2.27352,2.3321 4.85448,4.66702 13.27506,12.00958 21.25273,19.92605 24.78701,24.59686 2.66356,3.52008 3.95974,7.1643 3.41327,9.59643 -1.11046,4.94233 -10.15566,16.56736 -26.28321,33.77958 l -3.43824,3.66947 0.66678,5.93053 c 0.36673,3.26178 0.81984,6.26387 1.00691,6.67129 0.35019,0.76269 2.16903,1.61062 4.54013,2.11659 2.10328,0.44881 8.23465,0.17353 9.675,-0.43438 z m 8.25238,-43.78806 c 0.99034,-1.47285 2.32307,-3.6995 2.96162,-4.94812 1.3698,-2.6785 1.47772,-4.08244 0.52963,-6.88989 -0.62918,-1.86311 -4.5963,-8.15812 -5.27642,-8.37261 -0.46703,-0.14728 -0.61459,0.84714 -0.98636,6.64726 -0.34162,5.32967 -0.41365,16.47064 -0.10845,16.77584 0.33062,0.33062 0.99864,-0.41453 2.87998,-3.21248 z m -43.07922,-42.35081 c 3.0771,-1.49462 4.95538,-4.52988 5.71717,-9.23886 0.46579,-2.87925 0.67682,-11.78881 0.3108,-13.12178 -0.14123,-0.51432 -0.61505,-0.95773 -1.40321,-1.31314 -0.6545,-0.29513 -1.44917,-0.82319 -1.76594,-1.17347 -1.53536,-1.69771 -2.19086,-6.54359 -1.44357,-10.67175 0.67515,-3.72968 0.74156,-3.79386 6.83956,-6.60934 4.61295,-2.12982 9.5805,-7.59665 11.93893,-13.13887 1.69168,-3.9754 2.22283,-6.86784 2.21587,-12.0669 -0.007,-5.57177 -0.18141,-6.19727 -3.71287,-13.35 -3.38628,-6.858699 -6.11849,-10.966308 -12.27214,-18.45 -5.46452,-6.645609 -13.11007,-17.549022 -18.45927,-26.325 -1.13143,-1.85625 -2.15392,-3.375 -2.27221,-3.375 -0.11827,0 -0.43435,1.198695 -0.70239,2.663769 -0.92505,5.056206 -2.71732,10.406553 -5.8926,17.590722 -3.44505,7.794555 -9.64757,20.441922 -10.972,22.372695 -1.47517,2.150514 -2.02565,3.853695 -2.50969,7.764945 -1.12708,9.107409 1.09202,17.861859 6.14866,24.256699 1.10279,1.39463 4.49388,4.69841 8.41681,8.20011 3.61346,3.22544 7.21118,6.55315 7.99493,7.3949 l 1.425,1.53046 -0.005,2.93785 c -0.008,5.32754 -1.13249,8.10906 -4.25569,10.53145 l -1.81329,1.4064 0.18129,2.15462 c 0.22063,2.62237 1.18996,7.20695 2.20847,10.44538 1.39757,4.44364 3.45354,7.79063 5.82119,9.47655 1.87911,1.33805 5.62709,1.38684 8.26088,0.10756 z m -0.97279,-28.14012 c -0.33343,-0.86891 -0.003,-1.84399 0.62463,-1.84399 0.48526,0 0.6,0.2 0.6,1.04589 0,0.75826 -0.14463,1.07374 -0.52591,1.14717 -0.28925,0.0557 -0.60367,-0.10138 -0.69872,-0.34907 z m 0.085,-3.68362 c -0.37884,-0.37884 -0.22037,-1.84234 0.2177,-2.01044 0.58303,-0.22373 1.13952,0.51582 1.01996,1.35549 -0.0966,0.67852 -0.82738,1.06523 -1.23766,0.65495 z m -11.99338,-34.23634 c -0.53473,-0.59088 -2.00954,-3.64014 -2.01406,-4.16419 -0.001,-0.18708 -0.73545,-0.63746 -1.63075,-1.00084 -1.55456,-0.63095 -2.44179,-1.509 -1.52478,-1.509 0.23571,0 1.81652,0.21983 3.5129,0.48851 4.09582,0.64872 12.40354,0.42265 16.1397,-0.43918 1.4025,-0.32352 2.6614,-0.52023 2.79756,-0.43712 0.13616,0.0831 -0.0159,0.4406 -0.33794,0.79444 -0.32202,0.35384 -0.6784,1.18335 -0.79196,1.84335 -0.30241,1.7577 -1.34775,3.7984 -1.8904,3.69041 -0.24986,-0.0497 -0.7413,-0.90041 -1.09208,-1.89041 l -0.63778,-1.8 -5.0987,0.10613 c -2.80429,0.0584 -5.18143,0.15615 -5.28255,0.21727 -0.18942,0.11451 -0.70167,1.93337 -1.02841,3.6516 -0.21056,1.10724 -0.44138,1.19972 -1.12075,0.44903 z M 210.274,96.81546 c -1.19185,-0.915078 -1.51995,-2.876265 -0.7351,-4.394004 1.13182,-2.188689 4.13084,-1.372815 4.5547,1.23909 0.39175,2.414097 -2.10185,4.473762 -3.8196,3.154914 z m 30.70441,-0.0743 c -0.87787,-0.614886 -1.30924,-2.254338 -0.94257,-3.582312 0.6878,-2.49102 3.64886,-2.665395 4.64817,-0.273726 1.13318,2.712102 -1.47054,5.421534 -3.7056,3.856038 z"
         id="path4702"
         inkscape:connector-curvature="0" />
      <path
         style="fill:#151f62"
         d="m 196.70514,458.58429 c -2.3585,-0.88014 -2.84135,-2.13768 -1.74101,-4.53429 0.9333,-2.03277 3.82998,-5.43162 5.80071,-6.80634 3.48103,-2.42823 5.27233,-5.66568 5.55719,-10.04358 l 0.15941,-2.44992 -1.35333,-2.35008 c -6.64524,-11.5395 -13.50666,-28.75122 -17.7997,-44.65008 -0.7789,-2.88462 -0.80331,-3.20193 -0.63458,-8.25 0.0965,-2.8875 0.46274,-8.3946 0.81384,-12.23802 l 0.63836,-6.98805 -2.64801,-2.77338 c -5.30793,-5.55921 -9.18849,-12.67803 -12.72187,-23.33799 -3.6612,-11.04561 -6.25054,-24.21588 -7.62585,-38.78775 -0.24787,-2.62636 -0.52742,-4.85193 -0.6212,-4.94571 -0.0938,-0.0938 -0.75794,0.50255 -1.47589,1.32519 -0.86509,0.99122 -1.40517,1.39452 -1.60124,1.19571 -0.88006,-0.89238 -1.27142,-10.89507 -0.64556,-16.5 0.56183,-5.03152 1.53779,-10.18013 3.0424,-16.05 3.17281,-12.37794 3.56971,-14.0829 4.29503,-18.45 1.34429,-8.09385 1.5582,-14.23356 0.72188,-20.71974 -0.54612,-4.23543 -0.94459,-4.15152 -2.1838,0.4599 -1.06166,3.95075 -1.67803,8.27402 -1.68015,11.78484 -9e-4,1.691 -0.12469,2.925 -0.29314,2.925 -0.16025,0 -0.599,-0.97875 -0.975,-2.175 -0.62049,-1.97413 -0.68265,-2.74297 -0.67298,-8.325 0.01,-5.71292 0.27316,-8.56046 1.21349,-13.125 0.12951,-0.62864 0.0842,-0.975 -0.12761,-0.975 -0.38861,0 -3.94021,5.94073 -5.78409,9.675 -0.71288,1.44375 -1.40107,2.625 -1.5293,2.625 -0.39572,0 -0.25749,-4.04502 0.21498,-6.29106 0.24646,-1.17165 0.9296,-3.37423 1.51808,-4.89461 1.63366,-4.22071 1.68005,-3.95264 -0.50507,-2.91891 -3.0914,1.46246 -6.39932,1.08859 -7.43143,-0.83992 -0.41326,-0.77219 -0.16163,-0.9555 1.31157,-0.9555 5.80488,0 12.08477,-12.63203 15.88363,-31.95 2.18688,-11.12072 2.97814,-18.35084 3.00411,-27.45 0.0193,-6.74357 -0.0711,-8.09256 -1.09484,-16.35 -2.20636,-17.79607 -2.80965,-26.73814 -2.52998,-37.5 0.32805,-12.623457 1.59645,-21.75195 4.39776,-31.65 4.74556,-16.767756 15.17264,-28.267143 30.18149,-33.285291 1.98282,-0.662947 4.64419,-1.366899 5.91416,-1.564336 2.30002,-0.357575 2.31216,-0.364314 3.10975,-1.725287 1.00229,-1.710287 3.15982,-4.035224 4.77876,-5.149561 1.67011,-1.149562 4.98215,-2.430465 8.96389,-3.466706 3.08459,-0.80276 3.67207,-0.857937 9,-0.845312 5.32911,0.01263 5.87147,0.06642 8.33522,0.82665 7.09329,2.188751 12.8671,6.218473 18.37977,12.827816 9.23218,11.068806 18.28017,32.836884 22.00142,52.932027 1.75794,9.493089 1.97902,12.360534 1.96608,25.5 -0.0153,15.54975 -0.55413,20.76173 -4.79161,46.35 -1.21594,7.3425 -2.55593,15.56127 -2.97776,18.26394 l -0.76697,4.91393 2.02693,2.21346 c 3.94549,4.30859 7.98038,8.98835 9.74618,11.30385 5.52875,7.24989 7.36076,18.3591 4.09829,24.85189 -1.19378,2.37581 -7.89495,10.87454 -13.88427,17.60868 l -3.56672,4.01027 0.19745,2.59199 c 0.1086,1.4256 0.52898,5.69699 0.93417,9.49199 0.40519,3.795 0.95288,9.3975 1.21707,12.45 0.64647,7.46923 0.90655,26.17228 0.46515,33.45 -1.27811,21.07302 -4.73571,39.3009 -9.64559,50.85 -0.5261,1.2375 -1.01864,2.655 -1.09454,3.15 -0.14874,0.97011 1.13539,8.25843 2.77498,15.75 0.63298,2.89218 1.42066,8.16567 2.08365,13.95 3.61297,31.52157 4.87998,41.19636 6.33796,48.39585 1.10386,5.45082 1.80714,7.51341 2.91795,8.55777 1.94444,1.82817 12.9503,10.48014 17.86925,14.04744 2.80523,2.03442 5.10617,3.85797 5.11319,4.05234 0.0189,0.52194 -2.96862,0.80781 -6.112,0.58488 -6.59128,-0.46749 -14.00825,-3.15696 -21.87674,-7.93272 -1.95332,-1.18557 -3.74896,-2.15556 -3.99031,-2.15556 -0.63647,0 -1.3082,1.84359 -1.3082,3.59037 0,1.24665 -0.0929,1.50963 -0.53325,1.50963 -1.44774,0 -3.26596,-2.84967 -4.58133,-7.18023 l -0.66956,-2.20437 0.68044,-3.70977 c 0.7126,-3.88506 0.69257,-5.04384 -0.14959,-8.65563 -0.23084,-0.99 -0.5685,-3.42 -0.75036,-5.4 -0.38553,-4.19775 -2.87441,-21.76932 -5.41781,-38.25 -0.98036,-6.3525 -2.06701,-13.44 -2.41478,-15.75 -0.34777,-2.31 -0.7388,-4.31517 -0.86896,-4.45593 -0.32523,-0.35172 -3.48493,1.84341 -5.89367,4.09452 -3.85474,3.60246 -6.39766,7.76922 -9.23265,15.12831 -1.59275,4.13448 -2.45693,5.1831 -4.2715,5.1831 -1.38694,0 -2.90634,-1.48104 -3.40408,-3.31812 -0.41829,-1.54386 -0.49975,-5.53986 -0.17239,-8.45688 0.254,-2.26341 -0.0687,-2.60751 -1.25808,-1.34145 -1.33344,1.41939 -1.61053,2.96271 -1.83063,10.19613 -0.19688,6.47046 -0.24215,6.864 -0.86077,7.48263 -0.64276,0.64275 -0.67804,0.64506 -2.25802,0.147 -4.2442,-1.33785 -7.8785,-5.64099 -10.10579,-11.96559 -0.30532,-0.867 -0.68565,-1.61985 -0.84516,-1.67304 -0.15952,-0.0532 -0.38628,0.54513 -0.50391,1.32954 -0.11763,0.78441 -0.47572,2.12607 -0.79576,2.98143 -0.60844,1.62621 -2.17512,4.01835 -2.63172,4.01835 -0.14606,0 -0.48596,-0.97875 -0.75534,-2.175 -0.26937,-1.19625 -1.03002,-3.255 -1.69033,-4.575 -1.30505,-2.60886 -4.32479,-7.05 -4.79364,-7.05 -0.9098,0 0.85547,12.73815 2.86864,20.7 1.0726,4.24203 2.52028,8.3064 4.80854,13.5 2.81348,6.38568 11.36151,23.3022 13.30611,26.3328 2.22635,3.46965 2.80673,5.42727 2.82157,9.5172 0.0188,5.19588 -1.22771,7.80873 -3.45834,7.24887 -0.91173,-0.22884 -1.47609,-1.47435 -2.03394,-4.48878 -0.2424,-1.30986 -0.50825,-2.00775 -0.74283,-1.95 -0.20092,0.0494 -1.23062,1.1616 -2.28821,2.47146 -2.3407,2.89902 -5.22738,5.16408 -8.84431,6.93978 -4.69449,2.30469 -11.3119,3.61287 -13.72345,2.71296 z M 205.5,456.17082 c 5.32318,-0.96582 7.39229,-2.28819 11.5447,-7.37823 3.99228,-4.89375 4.93555,-5.5938 5.54838,-4.11759 0.15412,0.37125 0.70383,1.72125 1.22157,3 0.52572,1.29846 1.12144,2.325 1.34924,2.325 0.42198,0 1.0315,-1.73094 1.03444,-2.93766 0.003,-1.15479 -0.88483,-5.18283 -1.67445,-7.59849 -0.411,-1.25739 -1.97718,-4.42989 -3.48039,-7.05 -5.45389,-9.50619 -9.90192,-19.05246 -12.80241,-27.47625 -2.31447,-6.72183 -4.97451,-16.87719 -5.58251,-21.3126 -0.10743,-0.78375 -0.32167,-1.425 -0.47609,-1.425 -0.51669,0 -2.70749,2.18583 -3.43271,3.42492 -0.39436,0.6738 -0.96064,2.1459 -1.2584,3.27132 -0.29775,1.12545 -0.66724,2.07045 -0.82107,2.1 -0.15384,0.0297 -0.78988,-0.68874 -1.41342,-1.59624 -1.65491,-2.40852 -3.59646,-4.01976 -5.58188,-4.63221 -0.91037,-0.28083 -0.8875,0.16281 0.23392,4.53693 2.51214,9.79875 9.38742,27.13608 15.72761,39.66015 2.56237,5.06157 2.85952,5.99271 2.8618,8.96763 0.003,4.32906 -1.27844,6.53379 -7.10283,12.2175 -2.19809,2.145 -3.9963,4.06875 -3.99601,4.275 2.8e-4,0.20625 0.26298,0.63747 0.58378,0.95826 0.56226,0.56226 1.3815,0.79236 3.61673,1.01577 0.5775,0.0577 1.185,0.12183 1.35,0.1425 0.165,0.0207 1.3125,-0.14616 2.55,-0.37071 z m 92.89755,-2.36346 c -9.3863,-6.07158 -16.55955,-11.47884 -20.12324,-15.16905 -1.13837,-1.17879 -1.20726,-1.37247 -2.17057,-6.10287 -2.19704,-10.78866 -5.45333,-31.98273 -7.64142,-49.73544 -0.53893,-4.3725 -1.02233,-8.00766 -1.07422,-8.07813 -0.1931,-0.26223 -1.96315,1.66722 -2.51662,2.74323 -0.31546,0.61329 -0.71928,1.79454 -0.89738,2.625 -0.33164,1.54638 -1.00519,2.02569 -1.38402,0.9849 -0.33601,-0.92313 -1.90724,-3.075 -2.24527,-3.075 -0.21756,0 -0.25935,0.47508 -0.12536,1.425 0.11055,0.78375 0.86598,6.42 1.67873,12.525 0.81276,6.105 2.02547,14.9475 2.69491,19.65 2.60504,18.29916 3.07748,23.74857 2.4102,27.80076 -0.50131,3.04431 -0.4558,4.9341 0.14687,6.09957 0.60398,1.16796 1.03677,1.04628 1.54984,-0.43569 0.44553,-1.28688 0.85727,-1.86714 1.61119,-2.27064 0.38767,-0.20745 1.22387,0.18051 3.47467,1.6122 9.59036,6.10014 18.39955,9.73053 23.66414,9.75231 1.26849,0.005 1.41473,-0.049 0.94755,-0.35115 z m -75.30339,-124.40319 0.17917,-0.8958 0.90051,0.75771 c 0.80836,0.68022 0.96577,0.71478 1.53833,0.33792 1.12935,-0.74331 1.24949,-2.17455 0.39484,-4.704 -0.41813,-1.2375 -0.8612,-2.50839 -0.9846,-2.8242 -0.14993,-0.38373 -0.11554,-0.50697 0.10367,-0.37149 0.18042,0.11151 0.55746,0.9099 0.83786,1.77423 0.83929,2.58699 1.66593,4.36872 2.10509,4.53726 0.22748,0.0873 0.63499,-0.0627 0.90557,-0.33324 0.78691,-0.78693 0.13616,-3.92649 -1.5095,-7.28256 -1.76877,-3.60714 -8.82604,-16.32081 -10.86662,-19.57623 -2.85436,-4.55364 -3.97388,-6.93492 -8.45861,-17.99202 L 204.678,274.05 l -1.39098,-7.2 c -4.09344,-21.18836 -5.50313,-34.78558 -4.74819,-45.7989 0.41074,-5.99216 0.81565,-8.70427 2.47846,-16.6011 2.39052,-11.35281 4.35888,-17.91811 6.28056,-20.94829 1.0806,-1.70394 1.08778,-1.79885 0.22715,-3.0054 -1.09309,-1.53244 -0.92731,-4.41799 0.45491,-7.91847 1.51047,-3.82524 2.02698,-6.59449 1.9846,-10.64019 -0.0402,-3.84084 -0.23404,-5.07811 -0.82626,-5.27515 -0.62707,-0.20864 -4.66607,4.15845 -6.67346,7.21554 -3.23645,4.92883 -5.67711,11.04153 -7.28323,18.24104 -0.87399,3.91768 -4.10702,23.89242 -4.97397,30.73092 -2.18492,17.2345 -1.3459,31.25051 3.33131,55.65 2.02805,10.57974 5.98662,22.27552 10.76716,31.81209 2.31104,4.61025 4.20269,7.79199 8.12994,13.67457 3.14949,4.71759 6.83949,10.899 8.6655,14.51631 0.99904,1.97907 1.71255,2.30178 1.99266,0.9012 z M 222.18,324.72 c -0.10677,-0.27822 -0.12662,-0.57339 -0.0441,-0.65589 0.0825,-0.0825 0.23735,0.0777 0.34412,0.35589 0.10677,0.27822 0.12662,0.57339 0.0441,0.65589 -0.0825,0.0825 -0.23735,-0.0777 -0.34412,-0.35589 z m 16.34956,-58.42439 c 4.3957,-0.76492 9.36089,-1.91315 12.07608,-2.79267 1.40761,-0.45596 1.44928,-0.50256 1.26264,-1.41223 -1.03695,-5.0541 -3.33758,-34.67903 -4.82577,-62.14071 -0.26825,-4.95 -0.54763,-9.30375 -0.62084,-9.675 -0.0749,-0.38006 -0.35383,-0.675 -0.63827,-0.675 -0.37043,0 -0.21572,-0.30005 0.58008,-1.125 1.39202,-1.443 2.24528,-3.11693 2.64149,-5.18207 0.34739,-1.81066 0.22857,-3.00212 -0.61261,-6.14293 -0.68621,-2.56217 -2.23367,-12.72155 -2.72367,-17.88139 l -0.35909,-3.78139 -1.96828,-1.22208 c -1.08256,-0.67215 -2.09136,-1.14602 -2.24178,-1.05305 -0.15043,0.093 -0.19474,0.83407 -0.0985,1.6469 0.23134,1.95325 -0.25459,8.57693 -0.83259,11.34902 -1.06227,5.09471 -3.42499,8.90926 -6.20811,10.02285 -1.44322,0.57746 -5.0841,0.66827 -7.25774,0.18102 -3.34665,-0.7502 -6.02369,-2.91096 -7.63417,-6.16188 -1.84517,-3.72469 -4.56845,-13.67827 -4.56845,-16.6977 0,-0.5076 -0.66256,-0.22501 -2.28824,0.97595 -1.37387,1.01494 -1.63296,1.34646 -1.49179,1.9089 0.37255,1.48437 0.76791,4.90807 0.76362,6.61285 -0.0101,4.03748 -0.80246,6.68535 -3.45264,11.53857 -0.85648,1.56844 -0.90981,2.39383 -0.24519,3.79442 1.02042,2.15037 5.91303,6.34772 10.72655,9.20225 1.655,0.98146 1.98724,1.28556 1.48324,1.35761 -0.88157,0.12602 -6.47884,-2.09378 -8.5047,-3.37284 -0.93337,-0.58931 -1.75426,-0.92345 -1.90388,-0.77497 -0.47103,0.46743 0.10725,1.81209 1.36706,3.17883 1.43219,1.55374 1.33999,1.97688 -0.22903,1.05113 -0.60534,-0.35716 -1.1459,-0.6041 -1.20124,-0.54876 -0.0553,0.0553 -0.15515,12.44708 -0.22179,27.53719 -0.11154,25.2552 -0.35286,34.8283 -1.08842,43.17801 -0.20586,2.33687 -0.18541,3.25293 0.0798,3.57678 1.05781,1.29142 7.70257,3.61022 12.0566,4.20736 3.84261,0.52699 13.26988,0.17438 18.17956,-0.67997 z M 223.665,198.64099 c 0.15675,-0.14245 1.8375,-0.82852 3.735,-1.5246 1.8975,-0.69608 5.66837,-2.3324 8.3797,-3.63629 2.71134,-1.30388 5.00634,-2.29182 5.1,-2.19543 0.34694,0.35706 -2.25463,2.24915 -5.04856,3.67178 -3.12742,1.59242 -6.4877,2.7907 -9.7837,3.48886 -2.47503,0.52425 -2.77071,0.54854 -2.38244,0.19568 z m 43.38599,62.67708 c 0.60555,-0.18316 1.41555,-0.5912 1.8,-0.90675 0.568,-0.4662 0.63687,-0.67565 0.36748,-1.11753 -0.26479,-0.43431 -0.79326,-0.56143 -2.625,-0.63141 -1.26141,-0.0482 -2.2934,-0.18319 -2.29332,-0.3 8e-5,-0.11681 1.11383,-0.59501 2.475,-1.06266 3.06017,-1.05138 4.42485,-1.86362 4.42485,-2.6336 0,-0.8482 -0.79954,-1.02515 -2.01441,-0.44582 -1.52672,0.72804 -1.48826,0.43805 0.0894,-0.67396 1.40604,-0.99107 1.60881,-1.65889 0.68107,-2.24308 -0.3695,-0.23267 -1.36165,-0.0329 -3.93759,0.79285 -1.89399,0.60714 -3.89921,1.10314 -4.45603,1.10222 -1.25249,-0.002 -2.96097,-0.46176 -3.68569,-0.99169 -0.49605,-0.36272 -0.27695,-0.57793 2.41386,-2.37105 6.15803,-4.10362 12.53054,-10.20752 19.16074,-18.35308 7.37906,-9.06558 9.73015,-12.49382 11.49647,-16.76359 2.97482,-7.1911 -1.58533,-19.6955 -10.49703,-28.78392 -1.42959,-1.45793 -3.55962,-3.78199 -4.73341,-5.16457 -5.04478,-5.94211 -12.67067,-12.98191 -20.26735,-18.70967 -5.79825,-4.37179 -8.57463,-6.15613 -8.96747,-5.76329 -0.34701,0.34701 0.86381,12.42616 1.38262,13.79297 0.15857,0.41776 2.80753,3.01485 5.88658,5.77132 11.24881,10.07031 20.48036,19.24135 23.71204,23.55663 2.55452,3.41106 3.94297,7.02291 3.5175,9.15025 -0.8582,4.291 -10.61895,17.08444 -23.40833,30.68136 -6.41959,6.82493 -6.43918,6.85032 -6.29205,8.15578 0.64175,5.69419 1.36056,11.43114 1.481,11.82011 0.249,0.80409 3.03102,1.88172 6.43811,2.49383 1.26824,0.22785 6.68618,-0.0493 7.85099,-0.40165 z m 8.47351,-44.08013 c 1.09498,-1.62913 2.54225,-4.02538 3.21615,-5.325 1.15502,-2.22747 1.21716,-2.47789 1.08379,-4.368 -0.11123,-1.57645 -0.40873,-2.53838 -1.39171,-4.5 -1.30508,-2.60441 -4.03392,-6.54494 -4.5324,-6.54494 -0.1589,0 -0.35586,0.30375 -0.43769,0.675 -0.33285,1.50995 -0.76167,10.96261 -0.76214,16.8 -3e-4,5.11327 0.0739,6.225 0.41631,6.225 0.22925,0 1.3127,-1.33293 2.40769,-2.96206 z m -43.56292,-41.90422 c 2.44535,-0.83322 5.0915,-3.64419 6.12398,-6.50543 0.25371,-0.70306 0.64896,-2.56079 0.87835,-4.12829 0.46793,-3.19763 0.57546,-12.51518 0.15214,-13.1843 -0.15111,-0.23886 -0.99191,-0.85536 -1.86844,-1.37001 -2.0367,-1.19583 -2.65999,-2.6646 -2.8626,-6.74569 -0.1481,-2.9832 0.4366,-6.83259 1.17251,-7.71931 0.20679,-0.24917 2.1347,-1.3031 4.28424,-2.34207 6.33955,-3.06418 10.14141,-6.88655 13.06614,-13.13663 1.90221,-4.06499 2.44594,-6.57516 2.613,-12.06322 0.18829,-6.18511 -0.037,-7.0745 -3.64527,-14.38877 -2.94251,-5.964789 -6.21466,-11.176113 -9.67483,-15.408447 -5.26805,-6.443643 -6.98183,-8.662977 -10.57274,-13.691553 -3.79362,-5.312466 -8.30209,-12.162243 -11.40319,-17.325 -1.58947,-2.646195 -2.30095,-3.19077 -2.54764,-1.95 -0.0738,0.37125 -0.35337,1.89 -0.62125,3.375 -0.62301,3.453633 -1.92993,7.739124 -3.76083,12.331971 -2.67222,6.703329 -11.27983,24.730617 -12.73336,26.668029 -1.75663,2.341419 -2.32606,4.259196 -2.86484,9.64845 -0.74219,7.42402 1.03965,15.15738 4.83033,20.96413 1.98016,3.03329 3.14241,4.24589 9.42272,9.83082 6.79081,6.03891 9.08321,8.24499 9.6157,9.25362 0.33834,0.64088 0.36835,1.46364 0.15321,4.2 -0.14715,1.87164 -0.43552,3.87548 -0.64081,4.45298 -0.64413,1.81195 -2.06202,3.58319 -3.78321,4.726 l -1.6598,1.10205 0.20603,2.11097 c 0.72471,7.42538 3.52145,15.73266 6.37811,18.94525 1.02211,1.14945 2.72704,2.40511 3.53077,2.60037 1.36976,0.33277 4.91938,0.18938 6.21158,-0.25092 z m 0.26211,-29.70872 c 0.0144,-0.34948 0.0855,-0.42057 0.18124,-0.18125 0.0867,0.21656 0.076,0.47531 -0.0237,0.575 -0.0997,0.0997 -0.17059,-0.0775 -0.15756,-0.39375 z m 0,-3.9 c 0.0144,-0.34948 0.0855,-0.42057 0.18124,-0.18125 0.0867,0.21656 0.076,0.47531 -0.0237,0.575 -0.0997,0.0997 -0.17059,-0.0775 -0.15756,-0.39375 z m -13.04686,-35.2839 c -0.42726,-0.8574 -0.77683,-1.80439 -0.77683,-2.10441 0,-0.30003 -0.43875,-0.82128 -0.975,-1.15833 l -0.975,-0.61282 2.1,0.24223 c 3.68789,0.42539 11.7512,0.25527 14.35709,-0.30289 1.2964,-0.27769 2.47924,-0.50488 2.62854,-0.50488 0.40361,0 -0.0217,2.35601 -0.70413,3.9 l -0.59664,1.35 -0.86581,-1.9024 -0.86581,-1.9024 -5.32662,0.20793 c -6.02284,0.2351 -5.83387,0.15444 -6.41185,2.7371 C 220.56664,107.2756 220.30308,108 220.1791,108 c -0.12399,0 -0.57501,-0.70151 -1.00227,-1.5589 z m -8.76562,-10.248371 c -1.20272,-1.034538 -1.20881,-2.945685 -0.0127,-3.974568 1.05442,-0.906978 1.54352,-0.903366 2.46509,0.01821 1.36049,1.360491 0.79998,3.989013 -0.95925,4.498455 -0.44311,0.128316 -0.91147,-0.04172 -1.49318,-0.542091 z m 31.30971,0.499689 C 241.10751,96.53244 240.3,95.115996 240.3,94.2 c 0,-0.962898 0.80397,-2.304909 1.48798,-2.483784 0.9911,-0.259176 1.80583,0.101613 2.27403,1.007016 0.78713,1.522143 0.3575,3.243756 -0.95921,3.843687 -0.40207,0.183195 -0.75843,0.317421 -0.79191,0.298281 -0.0335,-0.01914 -0.29898,-0.09689 -0.58997,-0.172782 z"
         id="path4700"
         inkscape:connector-curvature="0" />
      <path
         style="fill:#060913"
         d="m 196.70514,458.58429 c -2.3585,-0.88014 -2.84135,-2.13768 -1.74101,-4.53429 0.9333,-2.03277 3.82998,-5.43162 5.80071,-6.80634 3.48103,-2.42823 5.27233,-5.66568 5.55719,-10.04358 l 0.15941,-2.44992 -1.35333,-2.35008 c -6.64524,-11.5395 -13.50666,-28.75122 -17.7997,-44.65008 -0.7789,-2.88462 -0.80331,-3.20193 -0.63458,-8.25 0.0965,-2.8875 0.46274,-8.3946 0.81384,-12.23802 l 0.63836,-6.98805 -2.64801,-2.77338 c -5.30793,-5.55921 -9.18849,-12.67803 -12.72187,-23.33799 -3.6612,-11.04561 -6.25054,-24.21588 -7.62585,-38.78775 -0.24787,-2.62636 -0.52742,-4.85193 -0.6212,-4.94571 -0.0938,-0.0938 -0.75794,0.50255 -1.47589,1.32519 -0.86509,0.99122 -1.40517,1.39452 -1.60124,1.19571 -0.88006,-0.89238 -1.27142,-10.89507 -0.64556,-16.5 0.56183,-5.03152 1.53779,-10.18013 3.0424,-16.05 3.17281,-12.37794 3.56971,-14.0829 4.29503,-18.45 1.34429,-8.09385 1.5582,-14.23356 0.72188,-20.71974 -0.54612,-4.23543 -0.94459,-4.15152 -2.1838,0.4599 -1.06166,3.95075 -1.67803,8.27402 -1.68015,11.78484 -9e-4,1.691 -0.12469,2.925 -0.29314,2.925 -0.16025,0 -0.599,-0.97875 -0.975,-2.175 -0.62049,-1.97413 -0.68265,-2.74297 -0.67298,-8.325 0.01,-5.71292 0.27316,-8.56046 1.21349,-13.125 0.12951,-0.62864 0.0842,-0.975 -0.12761,-0.975 -0.38861,0 -3.94021,5.94073 -5.78409,9.675 -0.71288,1.44375 -1.40107,2.625 -1.5293,2.625 -0.39572,0 -0.25749,-4.04502 0.21498,-6.29106 0.24646,-1.17165 0.9296,-3.37423 1.51808,-4.89461 1.63366,-4.22071 1.68005,-3.95264 -0.50507,-2.91891 -3.0914,1.46246 -6.39932,1.08859 -7.43143,-0.83992 -0.41326,-0.77219 -0.16163,-0.9555 1.31157,-0.9555 5.80488,0 12.08477,-12.63203 15.88363,-31.95 2.18688,-11.12072 2.97814,-18.35084 3.00411,-27.45 0.0193,-6.74357 -0.0711,-8.09256 -1.09484,-16.35 -2.20636,-17.79607 -2.80965,-26.73814 -2.52998,-37.5 0.32805,-12.623457 1.59645,-21.75195 4.39776,-31.65 4.74556,-16.767756 15.17264,-28.267143 30.18149,-33.285291 1.98282,-0.662947 4.64419,-1.366899 5.91416,-1.564336 2.30002,-0.357575 2.31216,-0.364314 3.10975,-1.725287 1.00229,-1.710287 3.15982,-4.035224 4.77876,-5.149561 1.67011,-1.149562 4.98215,-2.430465 8.96389,-3.466706 3.08459,-0.80276 3.67207,-0.857937 9,-0.845312 5.32911,0.01263 5.87147,0.06642 8.33522,0.82665 7.09329,2.188751 12.8671,6.218473 18.37977,12.827816 9.23218,11.068806 18.28017,32.836884 22.00142,52.932027 1.75794,9.493089 1.97902,12.360534 1.96608,25.5 -0.0153,15.54975 -0.55413,20.76173 -4.79161,46.35 -1.21594,7.3425 -2.55593,15.56127 -2.97776,18.26394 l -0.76697,4.91393 2.02693,2.21346 c 3.94549,4.30859 7.98038,8.98835 9.74618,11.30385 5.52875,7.24989 7.36076,18.3591 4.09829,24.85189 -1.19378,2.37581 -7.89495,10.87454 -13.88427,17.60868 l -3.56672,4.01027 0.19745,2.59199 c 0.1086,1.4256 0.52898,5.69699 0.93417,9.49199 0.40519,3.795 0.95288,9.3975 1.21707,12.45 0.64647,7.46923 0.90655,26.17228 0.46515,33.45 -1.27811,21.07302 -4.73571,39.3009 -9.64559,50.85 -0.5261,1.2375 -1.01864,2.655 -1.09454,3.15 -0.14874,0.97011 1.13539,8.25843 2.77498,15.75 0.63298,2.89218 1.42066,8.16567 2.08365,13.95 3.61297,31.52157 4.87998,41.19636 6.33796,48.39585 1.10386,5.45082 1.80714,7.51341 2.91795,8.55777 1.94444,1.82817 12.9503,10.48014 17.86925,14.04744 2.80523,2.03442 5.10617,3.85797 5.11319,4.05234 0.0189,0.52194 -2.96862,0.80781 -6.112,0.58488 -6.59128,-0.46749 -14.00825,-3.15696 -21.87674,-7.93272 -1.95332,-1.18557 -3.74896,-2.15556 -3.99031,-2.15556 -0.63647,0 -1.3082,1.84359 -1.3082,3.59037 0,1.24665 -0.0929,1.50963 -0.53325,1.50963 -1.44774,0 -3.26596,-2.84967 -4.58133,-7.18023 l -0.66956,-2.20437 0.68044,-3.70977 c 0.7126,-3.88506 0.69257,-5.04384 -0.14959,-8.65563 -0.23084,-0.99 -0.5685,-3.42 -0.75036,-5.4 -0.38553,-4.19775 -2.87441,-21.76932 -5.41781,-38.25 -0.98036,-6.3525 -2.06701,-13.44 -2.41478,-15.75 -0.34777,-2.31 -0.7388,-4.31517 -0.86896,-4.45593 -0.32523,-0.35172 -3.48493,1.84341 -5.89367,4.09452 -3.85474,3.60246 -6.39766,7.76922 -9.23265,15.12831 -1.59275,4.13448 -2.45693,5.1831 -4.2715,5.1831 -1.38694,0 -2.90634,-1.48104 -3.40408,-3.31812 -0.41829,-1.54386 -0.49975,-5.53986 -0.17239,-8.45688 0.254,-2.26341 -0.0687,-2.60751 -1.25808,-1.34145 -1.33344,1.41939 -1.61053,2.96271 -1.83063,10.19613 -0.19688,6.47046 -0.24215,6.864 -0.86077,7.48263 -0.64276,0.64275 -0.67804,0.64506 -2.25802,0.147 -4.2442,-1.33785 -7.8785,-5.64099 -10.10579,-11.96559 -0.30532,-0.867 -0.68565,-1.61985 -0.84516,-1.67304 -0.15952,-0.0532 -0.38628,0.54513 -0.50391,1.32954 -0.11763,0.78441 -0.47572,2.12607 -0.79576,2.98143 -0.60844,1.62621 -2.17512,4.01835 -2.63172,4.01835 -0.14606,0 -0.48596,-0.97875 -0.75534,-2.175 -0.26937,-1.19625 -1.03002,-3.255 -1.69033,-4.575 -1.30505,-2.60886 -4.32479,-7.05 -4.79364,-7.05 -0.9098,0 0.85547,12.73815 2.86864,20.7 1.0726,4.24203 2.52028,8.3064 4.80854,13.5 2.81348,6.38568 11.36151,23.3022 13.30611,26.3328 2.22635,3.46965 2.80673,5.42727 2.82157,9.5172 0.0188,5.19588 -1.22771,7.80873 -3.45834,7.24887 -0.91173,-0.22884 -1.47609,-1.47435 -2.03394,-4.48878 -0.2424,-1.30986 -0.50825,-2.00775 -0.74283,-1.95 -0.20092,0.0494 -1.23062,1.1616 -2.28821,2.47146 -2.3407,2.89902 -5.22738,5.16408 -8.84431,6.93978 -4.69449,2.30469 -11.3119,3.61287 -13.72345,2.71296 z M 205.5,456.17082 c 5.32318,-0.96582 7.39229,-2.28819 11.5447,-7.37823 3.99228,-4.89375 4.93555,-5.5938 5.54838,-4.11759 0.15412,0.37125 0.70383,1.72125 1.22157,3 0.52572,1.29846 1.12144,2.325 1.34924,2.325 0.42198,0 1.0315,-1.73094 1.03444,-2.93766 0.003,-1.15479 -0.88483,-5.18283 -1.67445,-7.59849 -0.411,-1.25739 -1.97718,-4.42989 -3.48039,-7.05 -5.45389,-9.50619 -9.90192,-19.05246 -12.80241,-27.47625 -2.31447,-6.72183 -4.97451,-16.87719 -5.58251,-21.3126 -0.10743,-0.78375 -0.32167,-1.425 -0.47609,-1.425 -0.51669,0 -2.70749,2.18583 -3.43271,3.42492 -0.39436,0.6738 -0.96064,2.1459 -1.2584,3.27132 -0.29775,1.12545 -0.66724,2.07045 -0.82107,2.1 -0.15384,0.0297 -0.78988,-0.68874 -1.41342,-1.59624 -1.65491,-2.40852 -3.59646,-4.01976 -5.58188,-4.63221 -0.91037,-0.28083 -0.8875,0.16281 0.23392,4.53693 2.51214,9.79875 9.38742,27.13608 15.72761,39.66015 2.56237,5.06157 2.85952,5.99271 2.8618,8.96763 0.003,4.32906 -1.27844,6.53379 -7.10283,12.2175 -2.19809,2.145 -3.9963,4.06875 -3.99601,4.275 2.8e-4,0.20625 0.26298,0.63747 0.58378,0.95826 0.56226,0.56226 1.3815,0.79236 3.61673,1.01577 0.5775,0.0577 1.185,0.12183 1.35,0.1425 0.165,0.0207 1.3125,-0.14616 2.55,-0.37071 z m 92.89755,-2.36346 c -9.3863,-6.07158 -16.55955,-11.47884 -20.12324,-15.16905 -1.13837,-1.17879 -1.20726,-1.37247 -2.17057,-6.10287 -2.19704,-10.78866 -5.45333,-31.98273 -7.64142,-49.73544 -0.53893,-4.3725 -1.02233,-8.00766 -1.07422,-8.07813 -0.1931,-0.26223 -1.96315,1.66722 -2.51662,2.74323 -0.31546,0.61329 -0.71928,1.79454 -0.89738,2.625 -0.33164,1.54638 -1.00519,2.02569 -1.38402,0.9849 -0.33601,-0.92313 -1.90724,-3.075 -2.24527,-3.075 -0.21756,0 -0.25935,0.47508 -0.12536,1.425 0.11055,0.78375 0.86598,6.42 1.67873,12.525 0.81276,6.105 2.02547,14.9475 2.69491,19.65 2.60504,18.29916 3.07748,23.74857 2.4102,27.80076 -0.50131,3.04431 -0.4558,4.9341 0.14687,6.09957 0.60398,1.16796 1.03677,1.04628 1.54984,-0.43569 0.44553,-1.28688 0.85727,-1.86714 1.61119,-2.27064 0.38767,-0.20745 1.22387,0.18051 3.47467,1.6122 9.59036,6.10014 18.39955,9.73053 23.66414,9.75231 1.26849,0.005 1.41473,-0.049 0.94755,-0.35115 z M 197.05981,384.76392 c 1.0206,-1.92384 2.58791,-3.64938 4.14193,-4.56009 1.17916,-0.69105 1.32912,-0.89148 1.17682,-1.5729 -0.42263,-1.89099 -0.54856,-13.94871 -0.19928,-19.08093 0.76603,-11.25585 2.19523,-19.81275 6.7627,-40.48968 0.58191,-2.6343 1.05802,-5.04294 1.05802,-5.35251 0,-0.30957 -0.74885,-1.86672 -1.66412,-3.46035 -1.64491,-2.86404 -4.57166,-8.73081 -5.4551,-10.93494 -0.25075,-0.62561 -0.60325,-1.08836 -0.78333,-1.02834 -0.32795,0.10932 -1.73912,5.62191 -4.81665,18.81582 -3.83082,16.42335 -6.72281,32.70789 -8.28461,46.65 -0.63706,5.68695 -1.12192,16.60977 -0.79511,17.91189 0.15056,0.59988 0.53346,0.87846 1.75776,1.27893 1.92372,0.62919 4.04919,1.69014 5.04402,2.51769 1.05588,0.87837 1.25887,0.80982 2.05696,-0.69459 z m 66.57371,-9.42609 c 0.51366,-0.63918 1.55906,-1.55043 2.32311,-2.025 l 1.38918,-0.86283 -0.13432,-1.8 c -0.0739,-0.99 -1.09054,-7.47 -2.25925,-14.4 -5.64363,-33.46437 -10.55805,-66.97366 -11.28537,-76.95 -0.23929,-3.28216 -1.70007,-14.18695 -1.9363,-14.45454 -0.0993,-0.1125 -1.80057,0.19436 -3.78057,0.68191 -9.34824,2.30186 -16.25862,3.12698 -24.1898,2.88834 -5.97884,-0.17989 -8.98896,-0.72181 -12.32495,-2.21891 -0.96124,-0.43138 -1.82463,-0.70742 -1.91864,-0.61341 -0.28571,0.28571 -2.20621,8.99852 -2.21159,10.03341 -0.0125,2.3949 6.17576,18.0832 7.13286,18.0832 0.12715,0 0.88235,-2.852 1.67823,-6.33778 1.10274,-4.82978 1.35901,-6.39219 1.07703,-6.56646 -0.60271,-0.3725 -0.0884,-0.81703 1.73454,-1.49906 4.64396,-1.73753 10.69623,-2.4989 16.45503,-2.07005 3.46266,0.25786 7.58645,0.94836 9.09956,1.52364 l 0.74236,0.28224 -0.73731,0.37166 c -0.90931,0.45835 -0.9141,0.95309 -0.0541,5.59581 0.35149,1.8975 2.47297,15.195 4.71439,29.55 4.28279,27.42873 6.66061,42.22212 8.39039,52.2 1.56798,9.04455 1.33128,8.29875 2.87463,9.0573 1.84244,0.90552 2.15219,0.86037 3.22088,-0.46947 z m -40.48532,-46.04931 0.0982,-0.85632 0.8634,0.82719 c 0.82878,0.79401 0.89345,0.80748 1.61279,0.33618 1.39364,-0.91317 1.24278,-2.80332 -0.60017,-7.51977 -0.14978,-0.38334 -0.11547,-0.50691 0.10324,-0.37176 0.18018,0.11136 0.62672,1.11225 0.99231,2.22423 1.33757,4.06824 2.28767,5.16552 3.04104,3.51204 0.46124,-1.01232 -0.33406,-4.36824 -1.66844,-7.04031 -2.83254,-5.67207 -8.40605,-15.60885 -12.19951,-21.75 -1.59369,-2.57999 -3.46914,-6.7417 -7.44832,-16.52814 -3.31107,-8.14328 -3.47359,-8.73964 -5.73765,-21.0541 -2.7483,-14.94822 -3.73124,-24.04225 -3.72009,-34.41776 0.009,-8.69122 0.33418,-11.59818 2.39194,-21.40452 2.81568,-13.41821 4.35948,-18.4377 6.94915,-22.59436 0.47722,-0.76599 0.46429,-0.86029 -0.31418,-2.2906 -0.44655,-0.82044 -0.8119,-1.92646 -0.8119,-2.45781 0,-1.26938 0.69241,-3.89345 1.64557,-6.2364 1.18742,-2.91875 1.65839,-5.71467 1.61894,-9.61092 -0.0399,-3.94254 -0.23015,-5.19455 -0.81901,-5.39047 -0.47504,-0.15806 -3.89856,3.26697 -5.6326,5.63508 -4.02269,5.49363 -7.05917,13.07499 -8.80433,21.9823 -0.86935,4.43717 -3.79466,22.97295 -4.48488,28.4177 -2.04721,16.14935 -1.53022,28.28 2.09079,49.05854 3.8583,22.14018 9.08331,35.73724 20.02035,52.09909 3.25719,4.87275 5.72491,8.95083 8.00733,13.23267 1.24343,2.33271 1.86458,3.21432 2.21754,3.14745 0.28662,-0.0543 0.53109,-0.44862 0.5885,-0.94923 z M 222.18,324.72 c -0.10677,-0.27822 -0.12662,-0.57339 -0.0441,-0.65589 0.0825,-0.0825 0.23735,0.0777 0.34412,0.35589 0.10677,0.27822 0.12662,0.57339 0.0441,0.65589 -0.0825,0.0825 -0.23735,-0.0777 -0.34412,-0.35589 z m 13.62,-57.90873 c 5.35265,-0.69386 15.27577,-2.99339 16.01244,-3.71063 0.14963,-0.14569 0.057,-1.71599 -0.21548,-3.65308 -1.11706,-7.94122 -2.92898,-32.18148 -4.54826,-60.84756 -0.2623,-4.6434 -0.61682,-8.54746 -0.81096,-8.93042 -0.30083,-0.59343 -0.22497,-0.80439 0.5933,-1.65 2.36992,-2.44912 2.94927,-5.92324 1.76258,-10.56958 -1.0967,-4.294 -2.89362,-16.59574 -2.89362,-19.80979 0,-0.83904 -0.16875,-1.7413 -0.375,-2.005 C 244.8759,155.06099 241.66101,153 241.21441,153 c -0.2031,0 -0.31651,1.40732 -0.32035,3.975 -0.0153,10.21074 -2.32491,16.7914 -6.64975,18.94656 -1.85482,0.9243 -4.64382,1.04079 -7.69529,0.32143 -3.40106,-0.80178 -5.58144,-2.50262 -7.22132,-5.63309 -1.32002,-2.51989 -3.83234,-10.67502 -4.34915,-14.11764 -0.24421,-1.62675 -0.51949,-3.0332 -0.61174,-3.12545 -0.23664,-0.23664 -1.52374,0.49593 -2.78132,1.58302 l -1.06903,0.92411 0.36746,2.08803 c 0.20211,1.14841 0.35967,3.43225 0.35014,5.0752 -0.0272,4.6941 -0.80161,7.57732 -2.85178,10.61798 -0.85785,1.27228 -1.08224,1.89439 -1.08209,3 1.6e-4,1.19635 0.19055,1.63734 1.3379,3.09884 1.65786,2.11181 4.2163,4.26424 8.0901,6.80624 1.63801,1.07487 2.81189,2.00974 2.60863,2.0775 -0.72938,0.24312 -6.54621,-2.20873 -8.48313,-3.57573 -1.09268,-0.77117 -1.45403,-0.7057 -1.45171,0.263 0.002,0.93711 0.84875,2.35896 1.85735,3.11975 0.93603,0.70605 0.50291,1.00627 -0.61655,0.42737 -0.50214,-0.25967 -1.04616,-0.47212 -1.20893,-0.47212 -0.19312,0 -0.23737,6.01942 -0.12736,17.325 0.16544,17.00344 -0.1738,36.60767 -0.82153,47.475 -0.17211,2.8875 -0.34038,6.24571 -0.37394,7.46268 l -0.061,2.21268 1.7866,0.99665 c 5.87125,3.27525 15.21309,4.33282 25.9634,2.93926 z m -10.35,-68.78569 c 0.33,-0.15874 2.22,-0.92183 4.2,-1.69577 1.98,-0.77393 5.049,-2.13225 6.82,-3.01848 1.771,-0.88623 3.391,-1.60571 3.6,-1.59884 0.209,0.007 -0.14612,0.47709 -0.78915,1.04495 -2.27217,2.00655 -9.62371,5.05262 -13.0653,5.41354 -1.01346,0.10628 -1.21085,0.0688 -0.76555,-0.1454 z m 41.60099,63.2941 c 0.60555,-0.18404 1.41555,-0.59281 1.8,-0.90836 0.56769,-0.46594 0.63682,-0.67589 0.36799,-1.11753 -0.2593,-0.42597 -0.84429,-0.57768 -2.7,-0.70023 -2.61849,-0.17291 -2.62839,-0.15724 0.93102,-1.47373 2.46959,-0.91341 3.75,-1.75121 3.75,-2.45371 0,-0.8423 -0.79718,-1.02628 -1.98745,-0.45868 -1.51799,0.72388 -1.55849,0.60551 -0.14352,-0.41949 1.50012,-1.08669 1.78155,-1.66594 1.12728,-2.32021 -0.44765,-0.44765 -0.70375,-0.42002 -3.26602,0.3524 -4.84243,1.45978 -5.16658,1.51197 -6.93387,1.11647 -0.88878,-0.1989 -1.85763,-0.53834 -2.15299,-0.75432 -0.48641,-0.35567 -0.32763,-0.52774 1.68477,-1.82583 3.97463,-2.5638 7.23851,-5.29112 11.83622,-9.89045 2.48294,-2.4838 5.70567,-6.00101 7.16164,-7.81601 1.45596,-1.815 3.73404,-4.65 5.06239,-6.3 3.10553,-3.85749 5.3398,-7.28946 6.88648,-10.57804 1.05499,-2.24314 1.2525,-2.98036 1.36703,-5.10262 0.27768,-5.14541 -1.85001,-11.76965 -5.66273,-17.63005 -1.75435,-2.69655 -5.08757,-6.73495 -6.94095,-8.40936 -0.68063,-0.61491 -1.91576,-1.94195 -2.74473,-2.94897 -2.46747,-2.99746 -6.03459,-6.72447 -9.74986,-10.18688 -7.1446,-6.65837 -19.49968,-15.95809 -20.23032,-15.22746 -0.40452,0.40453 0.85385,13.00724 1.39812,14.00223 0.18618,0.34036 2.42618,2.50036 4.97777,4.8 7.21528,6.5028 9.35421,8.5143 15.25757,14.34861 9.61394,9.5015 12.33855,13.25404 12.82011,17.65686 0.15149,1.38507 0.0445,1.83846 -0.8843,3.74799 -2.93771,6.03956 -11.59144,16.82989 -24.48291,30.52769 -2.01873,2.145 -3.84801,4.17 -4.06508,4.5 -0.33081,0.50293 -0.27896,1.59682 0.32052,6.76183 0.39335,3.389 0.80001,6.38289 0.90369,6.65309 0.25822,0.6729 2.34597,1.60791 4.82616,2.16141 2.3142,0.51646 7.61221,0.45677 9.46597,-0.10665 z m 8.47351,-44.08174 c 1.09498,-1.62913 2.54225,-4.02538 3.21615,-5.325 1.15502,-2.22747 1.21716,-2.47789 1.08379,-4.368 -0.11123,-1.57645 -0.40873,-2.53838 -1.39171,-4.5 -1.30508,-2.60441 -4.03392,-6.54494 -4.5324,-6.54494 -0.1589,0 -0.35586,0.30375 -0.43769,0.675 -0.33285,1.50995 -0.76167,10.96261 -0.76214,16.8 -3e-4,5.11327 0.0739,6.225 0.41631,6.225 0.22925,0 1.3127,-1.33293 2.40769,-2.96206 z m -43.54458,-41.91047 c 1.61626,-0.55072 3.85625,-2.42146 4.92323,-4.11167 1.09115,-1.72848 1.59188,-3.31171 2.06076,-6.5158 0.46793,-3.19763 0.57546,-12.51518 0.15214,-13.1843 -0.15111,-0.23886 -0.9928,-0.85336 -1.8704,-1.36555 -2.27437,-1.32737 -2.79956,-2.84013 -2.76009,-7.95015 0.0471,-6.09149 0.43903,-6.75519 5.14683,-8.71492 7.08991,-2.95133 12.66229,-9.63494 15.12445,-18.14052 0.6196,-2.14044 0.69269,-3.01538 0.68874,-8.24456 l -0.004,-5.85 -1.48446,-3.3 C 250.192,89.581062 246.02676,82.826535 240.72934,76.5 234.8123,69.433464 226.70499,57.954567 220.97118,48.525 c -2.29077,-3.767295 -3.03491,-4.480122 -3.28837,-3.15 -1.63772,8.59455 -2.83544,12.379416 -6.581,20.796417 -3.37671,7.588104 -9.5468,20.230209 -10.48211,21.477138 -2.13403,2.84505 -3.00399,6.596775 -3.01477,13.001445 -0.0122,7.22821 1.62137,12.87181 5.29697,18.3 1.78707,2.63919 3.23861,4.10551 10.5481,10.65556 3.63,3.25286 6.89476,6.23607 7.25502,6.62936 1.12233,1.22525 1.27369,2.07294 1.00894,5.65055 -0.21277,2.87527 -0.38418,3.62448 -1.21564,5.31341 -0.79976,1.62455 -1.30558,2.20812 -2.91118,3.35865 l -1.94323,1.39247 0.17633,1.98404 c 0.46316,5.21128 2.59062,12.86656 4.54949,16.37054 1.17357,2.09923 3.41692,4.48586 4.77113,5.07585 1.2659,0.55151 5.15337,0.52141 6.83906,-0.053 z m 0.24376,-29.70247 c 0.0144,-0.34948 0.0855,-0.42057 0.18125,-0.18125 0.0867,0.21656 0.076,0.47531 -0.0237,0.575 -0.0997,0.0997 -0.17059,-0.0775 -0.15756,-0.39375 z m 0,-3.9 c 0.0144,-0.34948 0.0855,-0.42057 0.18125,-0.18125 0.0867,0.21656 0.076,0.47531 -0.0237,0.575 -0.0997,0.0997 -0.17059,-0.0775 -0.15756,-0.39375 z m -13.02462,-35.3043 c -0.43949,-0.86862 -0.79906,-1.81561 -0.79906,-2.10441 0,-0.28881 -0.43875,-0.80088 -0.975,-1.13793 l -0.975,-0.61281 2.1,0.24222 c 3.60023,0.41528 12.04017,0.23196 14.55,-0.31602 1.2375,-0.27019 2.35285,-0.49137 2.47855,-0.4915 0.36751,-3e-4 -0.0984,2.43206 -0.74697,3.89975 l -0.59657,1.35 -0.54526,-1.2 c -0.29989,-0.66 -0.55527,-1.36564 -0.5675,-1.56808 -0.0291,-0.48191 -1.41423,-1.38409 -1.77893,-1.15869 -0.15568,0.0962 -2.343,0.2481 -4.8607,0.33751 -2.51771,0.0894 -4.67863,0.22499 -4.80205,0.30127 -0.29712,0.18363 -1.18057,2.79636 -1.18057,3.49143 0,0.96838 -0.4821,0.58567 -1.30094,-1.03274 z M 210.41121,96.192729 C 209.73064,95.60733 209.56363,95.214684 209.56363,94.2 c 0,-1.014684 0.16701,-1.40733 0.84758,-1.992729 C 211.85396,90.966267 213.6,92.057394 213.6,94.2 c 0,2.142606 -1.74604,3.233733 -3.18879,1.992729 z m 31.19801,0.356394 C 240.90553,96.208392 240.3,95.108469 240.3,94.170987 c 0,-0.953679 0.81726,-2.279373 1.51818,-2.462667 2.56593,-0.671004 3.73301,3.743037 1.28462,4.858599 -0.40207,0.183195 -0.75843,0.323943 -0.79192,0.312777 -0.0335,-0.01116 -0.34923,-0.159924 -0.70166,-0.330573 z m 18.10029,-27.088626 c 6.53683,-2.06538 9.47365,-6.458508 8.98197,-13.435947 -0.34791,-4.937274 -1.56114,-8.338317 -5.31843,-14.9091 -4.81524,-8.420928 -8.06335,-12.346202 -13.72581,-16.587333 -4.1938,-3.141116 -10.19621,-4.978429 -17.14724,-5.248698 -4.01036,-0.15593 -7.19067,0.363036 -10.23462,1.670092 l -1.38462,0.594547 0.23216,1.452971 c 0.12769,0.799134 0.65366,3.342971 1.16882,5.652971 3.72191,16.689084 10.61709,29.46687 19.66826,36.448215 1.90683,1.470777 4.94135,3.301785 5.47203,3.301785 0.49757,0 -0.9429,-2.660943 -3.99982,-7.388799 C 241.02178,57.298698 240.61077,56.4 241.3133,56.4 c 0.70439,0 2.6855,2.590215 6.88272,8.998878 1.45845,2.226882 2.70164,4.09878 2.76263,4.159776 0.29384,0.293832 2.30677,0.582993 4.25086,0.610638 1.5313,0.02178 2.84039,-0.184419 4.5,-0.708795 z"
         id="path4698"
         inkscape:connector-curvature="0" />
    </g>
  </g>
</svg>
