<?xml version="1.0" encoding="UTF-8" standalone="no"?>
<!-- Created with Inkscape (http://www.inkscape.org/) -->

<svg
   xmlns:osb="http://www.openswatchbook.org/uri/2009/osb"
   xmlns:dc="http://purl.org/dc/elements/1.1/"
   xmlns:cc="http://creativecommons.org/ns#"
   xmlns:rdf="http://www.w3.org/1999/02/22-rdf-syntax-ns#"
   xmlns:svg="http://www.w3.org/2000/svg"
   xmlns="http://www.w3.org/2000/svg"
   xmlns:sodipodi="http://sodipodi.sourceforge.net/DTD/sodipodi-0.dtd"
   xmlns:inkscape="http://www.inkscape.org/namespaces/inkscape"
   width="64"
   height="64"
   viewBox="0 0 64 64.000002"
   id="svg2"
   version="1.1"
   inkscape:version="0.91 r13725"
   sodipodi:docname="enemy_ice_king.svg">
  <defs
     id="defs4">
    <linearGradient
       id="linearGradient4186"
       osb:paint="solid">
      <stop
         style="stop-color:#3d748b;stop-opacity:1;"
         offset="0"
         id="stop4188" />
    </linearGradient>
  </defs>
  <sodipodi:namedview
     id="base"
     pagecolor="#ffffff"
     bordercolor="#666666"
     borderopacity="1.0"
     inkscape:pageopacity="0.0"
     inkscape:pageshadow="2"
     inkscape:zoom="5.6568542"
     inkscape:cx="22.234093"
     inkscape:cy="37.666972"
     inkscape:document-units="px"
     inkscape:current-layer="layer1"
     showgrid="true"
     units="px"
     inkscape:showpageshadow="false"
     inkscape:snap-bbox="true"
     inkscape:bbox-nodes="true"
     inkscape:object-nodes="true"
     inkscape:window-width="1024"
     inkscape:window-height="745"
     inkscape:window-x="-8"
     inkscape:window-y="-8"
     inkscape:window-maximized="1">
    <inkscape:grid
       type="xygrid"
       id="grid3336"
       spacingx="2"
       spacingy="2.0000001"
       empspacing="1" />
  </sodipodi:namedview>
  <metadata
     id="metadata7">
    <rdf:RDF>
      <cc:Work
         rdf:about="">
        <dc:format>image/svg+xml</dc:format>
        <dc:type
           rdf:resource="http://purl.org/dc/dcmitype/StillImage" />
        <dc:title />
      </cc:Work>
    </rdf:RDF>
  </metadata>
  <g
     inkscape:label="Layer 1"
     inkscape:groupmode="layer"
     id="layer1"
     transform="translate(0,-988.3622)">
    <g
       transform="matrix(0.1120397,0,0,0.11503447,11.043876,992.7861)"
       id="g4146">
      <path
         style="fill:#5e605e"
         d="m 153.48435,477.77122 c -2.86931,-0.27427 -13.43363,-1.13552 -23.47625,-1.91407 -45.121203,-3.49773 -82.097653,-13.48234 -93.517688,-25.25204 -5.619709,-5.79181 -6.719924,-16.65105 -6.820443,-67.31872 -0.07835,-39.51796 0.24302,-46.80108 2.924441,-66.27372 7.740328,-56.21079 18.510236,-91.74071 36.600885,-120.74609 6.504262,-10.42852 6.382841,-10.44011 -12.876529,-1.2301 -14.966971,7.15741 -27.521097,18.64292 -33.041594,30.22921 -7.417551,15.56768 -11.209946,41.75468 -11.272845,77.84018 -0.02647,15.22939 -0.285984,17.15526 -2.5189692,18.69846 -1.948674,1.34667 -5.3360612,12.34252 -5.3360612,17.32145 0,0.22394 -0.54734,0.40709 -1.216336,0.40709 -0.669004,0 -1.62289,-1.2639 -2.11979297,-2.8086 -0.86512,-2.68949 -0.975053,-2.6485 -2.59045203,0.96516 -1.6691429,3.73388 -1.6885239,3.73982 -1.8343809,0.55656 -0.138937,-3.03274 -0.251742,-3.08124 -1.9678221,-0.84663 -1.688138,2.19826 -1.921505,2.01126 -3.211835,-2.57375 -0.765276,-2.71932 -1.3946716,-6.18442 -1.3986866,-7.70021 -0.0056,-1.87359 -1.065918,-3.01805 -3.313988,-3.57481 -1.936027,-0.47948 -3.853404,-2.23762 -4.625575,-4.2415 -2.626375,-6.81591 1.76375,-47.94495 7.319186,-68.57008 10.08798163,-37.45267 34.252239,-63.35788 70.118064,-75.17005 11.423782,-3.76231 31.840476,-8.47648 36.711124,-8.47648 2.4203,0 5.428238,-2.60944 12.237988,-10.61666 9.57184,-11.25503 17.75215,-23.13987 18.83746,-27.36819 0.44374,-1.72873 0.70369,-1.89192 0.80622,-0.50605 0.23697,3.204 5.50839,4.85318 22.69358,7.0997 24.15856,3.15819 60.47496,0.53656 67.04015,-4.83952 0.94275,-0.77198 1.71407,-3.44928 1.71407,-5.94952 0,-4.39506 -0.0828,-4.472 -2.49432,-2.31863 -2.40257,2.14531 -2.69039,1.96535 -7.82542,-4.89309 -2.9321,-3.91619 -5.33109,-7.71907 -5.33109,-8.45083 0,-0.7318 1.78518,-5.26985 3.96708,-10.084565 l 3.96707,-8.754038 -3.31495,-19.00384 c -1.82323,-10.452103 -3.31495,-19.547428 -3.31495,-20.211805 0,-0.664408 -0.53183,-1.208006 -1.18187,-1.208006 -0.65,0 -1.59716,3.040205 -2.1048,6.756075 -1.26637,9.270056 -6.87525,35.871176 -7.74425,36.728626 -1.63839,1.61656 -2.33026,-1.25226 -0.94429,-3.91545 1.44932,-2.78486 6.82038,-28.372325 8.67625,-41.333074 0.49361,-3.447323 1.38867,-5.76369 1.98899,-5.147481 1.00294,1.029509 6.40237,28.397175 8.59716,43.575725 0.65621,4.53831 2.40227,8.34873 5.95041,12.985628 5.65957,7.396235 5.82422,8.142475 2.98977,13.550705 -1.67774,3.20122 -1.78404,5.05524 -0.60973,10.63641 2.83141,13.45726 19.78365,42.79537 25.31706,43.81453 44.0268,8.10888 61.72857,15.61032 80.46727,34.0995 22.41507,22.11663 32.99805,51.86981 35.81924,100.70311 l 0.86813,15.02704 -4.53667,4.47628 c -3.31587,3.2717 -4.77725,6.05922 -5.4307,10.35861 -0.49169,3.23528 -1.44702,6.21959 -2.1229,6.63171 -0.67588,0.41219 -1.22887,0.13616 -1.22887,-0.61341 0,-2.33977 -2.60264,-1.48714 -2.7144,0.88918 -0.0682,1.44738 -0.71992,0.87653 -1.82436,-1.5977 -1.7179,-3.8485 -1.7186,-3.8487 -2.1765,-0.64337 -1.03434,7.2401 -4.64227,1.27787 -4.89287,-8.08569 -0.10537,-3.93766 -0.7475,-5.0893 -3.39059,-6.08076 l -3.2606,-1.22317 -0.0105,-22.87378 c -0.0171,-36.46506 -3.05272,-56.20668 -11.28917,-73.41605 -5.02602,-10.50156 -15.73089,-22.23307 -25.21875,-27.63738 -5.78165,-3.2932 -22.05046,-9.23287 -22.92514,-8.36987 -0.24674,0.24351 1.9211,4.34689 4.81745,9.11866 16.13753,26.5869 31.27554,76.06077 36.88307,120.54095 6.80798,54.00235 7.58814,121.53991 1.50971,130.69324 -5.9303,8.93022 -42.07022,20.47109 -80.29965,25.64295 -14.16818,1.91661 -69.73592,3.61594 -81.49505,2.49204 z M 151.528,429.00783 c 13.01916,-8.8391 13.6856,-9.21494 12.39935,-6.99246 -0.57533,0.99407 -2.48601,3.72748 -4.24594,6.07423 -1.75995,2.34681 -2.86203,4.60023 -2.44909,5.00765 0.41295,0.40742 4.88648,-2.23651 9.94119,-5.87542 8.6654,-6.23826 12.88809,-8.51772 9.39583,-5.07201 -0.86081,0.84938 -1.56509,2.00748 -1.56509,2.57377 0,2.16274 3.68432,0.84982 11.1588,-3.97663 4.26394,-2.75332 7.95784,-4.81894 8.20865,-4.59023 0.25084,0.2287 -0.24783,2.52023 -1.10815,5.0923 -0.86031,2.57205 -1.26447,4.97226 -0.89813,5.33373 0.36636,0.36147 3.18952,-2.71761 6.27371,-6.84227 3.08418,-4.12479 10.03254,-12.16767 15.44078,-17.87306 15.98777,-16.86637 25.23791,-34.61032 28.80933,-55.26299 2.23908,-12.9481 3.09787,-13.64806 5.66578,-4.61804 1.22643,4.31278 2.57184,7.84144 2.98977,7.84144 0.41792,0 0.46593,-4.05364 0.10668,-9.00809 -0.35927,-4.95445 -0.2533,-9.0081 0.2355,-9.0081 0.48879,0 2.16436,2.75072 3.72349,6.11262 l 2.83475,6.11261 -0.60235,-5.14745 c -0.33129,-2.83113 -1.01373,-7.17431 -1.51653,-9.65146 l -0.91418,-4.50409 4.2404,4.18237 c 5.78373,5.70447 7.2533,5.24998 3.91308,-1.21026 -3.94896,-7.63747 -2.87939,-20.15641 3.49734,-40.93474 4.87443,-15.88313 4.93686,-16.36157 4.9548,-37.96262 0.0171,-20.59008 -0.19422,-22.48222 -3.59325,-32.17174 -6.12589,-17.46269 -12.97073,-30.1563 -26.36905,-48.90095 -7.08267,-9.90891 -14.97213,-22.11838 -17.5321,-27.13218 l -4.6545,-9.11598 -4.27868,1.99932 c -3.78119,1.76692 -4.18831,2.44536 -3.50128,5.83471 0.42757,2.10943 4.05981,11.1028 8.0716,19.98531 9.32251,20.64086 8.86511,19.36719 6.95484,19.36719 -0.90292,0 -6.22051,-2.60592 -11.81689,-5.79089 -5.59636,-3.18502 -10.49603,-5.79094 -10.88812,-5.79094 -0.39207,0 -0.72187,2.17161 -0.73285,4.82576 -0.0359,8.66634 -1.45859,9.15928 -9.99216,3.46207 -4.17727,-2.78886 -7.8885,-5.21467 -8.24716,-5.39065 -0.35867,-0.17602 -0.61425,3.27022 -0.56796,7.65829 l 0.0841,7.97834 5.78489,1.46449 c 14.3706,3.63807 31.30786,15.28241 33.22465,22.84195 1.1524,4.54474 -2.26928,8.63448 -7.22403,8.63448 -1.9296,0 -7.26751,-2.39923 -11.86203,-5.33172 -8.46844,-5.40501 -18.9606,-9.72548 -20.33197,-8.37235 -0.41299,0.40749 -1.54649,13.64689 -2.51891,29.42096 -2.61066,42.34909 -5.06527,61.87304 -7.31412,58.17636 -1.79937,-2.95782 -7.45102,-47.87055 -9.58186,-76.14523 -0.63247,-8.39246 -1.39244,-11.90357 -2.57652,-11.90357 -0.92368,0 -1.97776,-0.59357 -2.34243,-1.31906 -0.36463,-0.72542 -0.51867,-0.60231 -0.34231,0.27362 0.62462,3.10213 -21.24141,19.06163 -26.11628,19.06163 -3.09903,0 -8.31014,-5.48497 -8.31014,-8.74688 0,-4 6.68198,-13.02721 13.06477,-17.65015 6.80517,-4.92896 17.63097,-9.63529 22.1636,-9.63529 2.34513,0 2.59449,-0.87428 2.59449,-9.09647 l 0,-9.09647 -7.7457,6.64728 c -4.26013,3.65603 -8.35228,6.27737 -9.0937,5.82529 -0.74141,-0.45211 -2.04401,-3.11407 -2.89463,-5.91547 -0.85066,-2.8014 -2.12866,-5.09347 -2.83999,-5.09347 -0.71134,0 -5.36524,2.31636 -10.34201,5.14747 -8.15358,4.63831 -11.42801,5.98654 -11.42801,4.7055 0,-1.59629 5.73131,-16.20553 10.17598,-25.93882 7.66662,-16.7889 7.79392,-17.71738 2.68994,-19.61827 -2.31901,-0.86368 -4.29988,-1.43559 -4.40195,-1.27097 -0.10215,0.16463 -1.593,2.6157 -3.31321,5.44681 -1.72019,2.83112 -9.15305,12.50314 -16.51748,21.49339 -7.36443,8.99028 -15.788645,19.99299 -18.720466,24.45053 -23.028528,35.01234 -27.82977,71.10908 -14.316081,107.63118 7.691321,20.78654 8.153494,23.26618 7.134424,38.27678 -0.500484,7.37195 -0.569693,13.40362 -0.153784,13.40362 0.415896,0 2.307267,-2.46109 4.203025,-5.46917 3.069926,-4.8711 3.354011,-5.05647 2.597782,-1.69535 -0.466994,2.07562 -1.931552,5.98456 -3.254572,8.68638 -1.323027,2.70189 -1.974151,4.91254 -1.44697,4.91254 1.218616,0 5.829585,-4.99817 7.716639,-8.36465 1.184348,-2.11288 1.477428,-1.07593 1.636655,5.7909 0.138446,5.96992 0.433506,7.25942 1.030647,4.50408 1.512361,-6.97843 4.337503,-4.4319 9.279881,8.36465 5.94377,15.38923 7.27726,17.85124 19.38272,35.78525 9.58176,14.19524 9.91766,14.95499 10.40952,23.54365 0.5862,10.2363 2.33089,11.28259 9.24349,5.54353 5.0477,-4.19078 5.07463,-3.23992 0.10005,3.53578 -4.02822,5.48673 -5.22316,9.69435 -2.2824,8.03686 0.89666,-0.50546 6.03208,-3.90744 11.41205,-7.56006 z M 4.1473986,329.89367 l 0.892611,-5.80323 -6.966529,0 c -6.393572,0 -6.955821,0.23811 -6.836539,2.89548 0.07144,1.59248 0.599925,4.34319 1.17425,6.11261 l 1.04422,3.21721 0.149984,-3.21721 c 0.08252,-1.76942 0.718901,-4.08575 1.41427,-5.14751 0.9568471,-1.46089 1.2691311,-0.8948 1.2842731,2.32801 0.01183,2.50706 0.556311,3.9312 1.324201,3.46295 0.7173249,-0.43738 1.3042169,-1.91929 1.3042169,-3.29311 0,-1.37382 0.58691603,-2.49785 1.30425703,-2.49785 0.717325,0 1.30420897,2.12339 1.30420897,4.71856 0,6.16137 1.473268,4.59239 2.606576,-2.77591 z m 341.3952614,2.57272 1.41483,3.84935 0.10288,-3.46295 c 0.15257,-5.13133 2.69424,-5.85244 2.80311,-0.79532 0.0765,3.54812 0.27859,3.82905 1.21257,1.68451 0.6165,-1.4156 1.16215,-3.80138 1.21257,-5.30182 0.0778,-2.31699 -0.84201,-2.83269 -6.10345,-3.42196 -3.40733,-0.3817 -6.41256,-0.48372 -6.67831,-0.22681 -0.26575,0.2569 -0.0437,3.24448 0.49358,6.63915 l 0.97678,6.17201 1.57527,-4.49265 1.57527,-4.49279 1.41482,3.84928 z M 178.12058,260.39041 c 2.67942,-33.30458 4.70908,-68.86414 4.70908,-82.50229 0,-5.9376 0.32566,-10.79564 0.72369,-10.79564 0.39802,0 4.18072,2.31639 8.40597,5.14747 4.22525,2.83112 7.9413,5.14747 8.25789,5.14747 0.31658,0 0.96959,-2.5924 1.45115,-5.76088 0.48154,-3.16852 1.32047,-6.03223 1.86423,-6.36382 0.54376,-0.33159 5.5661,1.97126 11.16072,5.11747 5.59462,3.14619 10.35,5.72038 10.56751,5.72038 0.21751,0 -2.49146,-6.36301 -6.01992,-14.14001 -3.52846,-7.77701 -7.1361,-16.79881 -8.01699,-20.04845 l -1.6016,-5.90847 -5.89696,0.79416 c -12.30936,1.6578 -12.85096,1.89017 -12.46615,5.34912 0.27804,2.49913 -0.11216,3.03961 -1.75356,2.42867 -1.94206,-0.72287 -1.94271,-0.61775 -0.007,1.31273 1.15665,1.15418 4.67808,2.34747 7.82543,2.65168 3.14734,0.3042 4.98515,0.21032 4.08401,-0.20863 -0.90112,-0.41895 -1.30667,-1.29137 -0.90119,-1.93869 0.4051,-0.64732 -0.35942,-1.17695 -1.69931,-1.17695 -1.33989,0 -3.57543,-0.91594 -4.96787,-2.03537 -2.32692,-1.87072 -2.33787,-1.97458 -0.13527,-1.2841 1.31805,0.4132 4.70577,1.11564 7.52826,1.56095 2.82252,0.44536 5.39199,1.22503 5.70994,1.73266 0.78167,1.24788 -4.25204,6.462 -6.22972,6.45301 -4.2456,-0.0195 -11.22046,-2.89624 -13.93589,-5.74817 -2.66689,-2.80097 -2.77328,-3.28393 -0.88133,-4.00027 5.2159,-1.97486 0.78421,-2.80512 -19.0421,-3.56751 -11.65662,-0.44825 -22.99318,-1.15851 -25.19238,-1.57841 -3.79539,-0.72464 -4.08426,-0.47993 -5.68583,4.81704 -0.92802,3.06926 -3.44064,9.34455 -5.58361,13.94512 -2.14296,4.60053 -4.98068,11.40221 -6.30604,15.11483 l -2.40975,6.75016 9.6744,-5.2389 c 5.32094,-2.88144 10.26093,-4.88129 10.97777,-4.44415 0.71683,0.43713 1.99934,3.08683 2.84997,5.88826 0.85064,2.80136 1.89391,5.08827 2.31837,5.082 0.42444,-0.006 4.19395,-2.90175 8.37669,-6.43436 4.18273,-3.53261 8.14435,-6.42289 8.80359,-6.42289 0.66574,0 1.201,7.29456 1.20396,16.40756 0.006,19.67366 1.78705,44.67344 5.29345,74.31665 2.67824,22.64193 3.88086,30.63565 4.51031,29.97975 0.20149,-0.20998 1.2981,-11.96357 2.43691,-26.11918 z m -33.90386,-95.16864 c -2.21993,-1.60166 -2.12545,-1.6909 1.13854,-1.07528 2.17942,0.4111 4.88341,-0.18455 6.97433,-1.53633 2.33889,-1.51211 3.23628,-1.67905 2.84802,-0.52976 -0.31179,0.92289 -2.36082,2.40022 -4.55343,3.28296 -3.25018,1.30855 -4.43376,1.28241 -6.40746,-0.14159 z m 49.01062,-1.13587 c -1.66011,-0.82358 -3.29721,-2.36609 -3.63798,-3.42775 -0.50875,-1.58492 -0.17716,-1.54838 1.85336,0.20437 1.36013,1.17411 3.94022,2.33751 5.73354,2.58537 2.47137,0.34159 2.75336,0.65457 1.16503,1.29306 -1.15256,0.4633 -3.45384,0.16855 -5.11395,-0.65505 z m -46.44463,-5.35806 c -1.25336,-3.22268 0.56195,-5.79089 4.09317,-5.79089 3.8774,0 5.57602,3.03814 3.2468,5.80726 -2.08053,2.47352 -6.37535,2.46394 -7.33997,-0.0163 z m 7.02808,-1.60792 c 0.71309,-2.11318 -3.37339,-3.62166 -5.12614,-1.89225 -0.75007,0.74008 -0.94937,2.00722 -0.44284,2.81586 1.15236,1.83973 4.84304,1.22765 5.56898,-0.92361 z m 38.21454,1.68642 c -2.57334,-3.0594 -0.67176,-6.10885 3.51322,-5.63388 2.85393,0.32392 3.59406,1.07043 3.59406,3.62507 0,3.83117 -4.50374,5.10408 -7.10728,2.00881 z m 6.12949,-1.68642 c 0.71309,-2.11318 -3.37339,-3.62166 -5.12615,-1.89225 -0.75007,0.74008 -0.94935,2.00722 -0.44284,2.81586 1.15236,1.83973 4.84305,1.22765 5.56899,-0.92361 z m -59.19753,-6.11329 c 0.41289,-1.06165 0.0355,-1.94873 -0.83864,-1.97123 -2.41347,-0.0621 3.15181,-3.81967 5.65733,-3.81967 1.2008,0 3.83472,-1.28173 5.8531,-2.84823 2.35958,-1.83133 3.84942,-2.31659 4.17288,-1.35918 0.27666,0.81899 1.2861,1.19257 2.24321,0.8302 2.77652,-1.05127 3.38182,1.414 1.12704,4.59031 -3.81078,5.36818 -20.11607,9.46608 -18.21492,4.5778 z m 12.67796,-2.03807 c 1.13501,-0.57123 2.69908,-1.79407 3.47576,-2.71741 1.10363,-1.31211 0.65281,-1.6539 -2.06363,-1.5646 -3.27384,0.1076 -11.30349,2.84609 -8.85905,3.02133 0.62584,0.0449 0.37661,0.98661 -0.55381,2.0928 -1.48885,1.77003 -1.23429,1.90303 2.12272,1.10884 2.09793,-0.4963 4.74304,-1.36973 5.87801,-1.94096 z m -14.5016,70.94192 c 1.65231,-1.03121 1.58974,-1.84938 -0.46595,-6.09297 l -2.37457,-4.90184 -2.00807,4.95471 c -1.70867,4.21598 -1.73643,5.12442 -0.18616,6.09291 2.27613,1.42206 2.6782,1.41781 5.03475,-0.0529 z m 81.47117,-3.77115 c 0.39311,-0.62758 -0.15917,-1.85669 -1.22726,-2.73132 -1.6161,-1.32344 -1.94199,-1.13187 -1.94199,1.14106 0,2.76076 1.85351,3.6908 3.16925,1.59026 z m -65.99297,-7.43513 c 0.23744,-0.11632 -0.25029,-1.46885 -1.08385,-3.00566 -1.85253,-3.41536 -2.76067,-2.63877 -4.77124,4.07995 l -1.5549,5.19595 3.48913,-3.02935 c 1.91902,-1.66617 3.6834,-3.12451 3.92086,-3.24089 z m 48.97061,-2.68394 c -0.47325,-1.94638 -1.05713,-3.76619 -1.29757,-4.04399 -0.58992,-0.68168 -4.41287,2.50915 -4.41287,3.68317 0,0.72673 4.22758,3.31811 6.21997,3.8126 0.19301,0.0477 -0.0363,-1.5054 -0.50953,-3.45178 z m 13.81211,-4.10658 c -0.0714,-1.25412 -6.48019,-5.3964 -6.48019,-4.1885 0,0.63522 0.67569,3.06747 1.50154,5.40496 1.39971,3.96174 1.62087,4.08895 3.2606,1.87633 0.96748,-1.30548 1.7406,-2.69725 1.71805,-3.09279 z m -72.32035,-1.46937 c 1.13007,-5.07664 0.31801,-5.7426 -3.77557,-3.09607 -3.15522,2.03979 -3.22068,2.30889 -1.27474,5.23923 2.46942,3.71861 3.8786,3.1206 5.05033,-2.14316 z m 14.89082,-9.32637 c 1.23473,-3.20433 1.18875,-3.23398 -2.91733,-1.88308 -6.14289,2.02101 -6.78462,3.05822 -4.25193,6.87213 2.22229,3.3465 2.29765,3.36197 4.08938,0.83795 1.00396,-1.41429 2.38991,-4.03643 3.07988,-5.827 z m 37.40148,3.60205 c 2.48576,-3.74322 2.56051,-3.61432 -3.21218,-5.53781 -3.80418,-1.26759 -4.26772,-1.19355 -3.58108,0.57194 0.43379,1.11538 1.14328,3.42189 1.57666,5.12558 1.00895,3.96645 2.50699,3.92056 5.2166,-0.15971 z m -28.55516,-67.35333 -6.15371,-6.4912 0,-11.07809 c 0,-12.450233 0.74826,-14.480013 8.127,-22.046083 l 5.21387,-5.34623 3.53021,4.05938 c 7.52679,8.65504 7.9094,9.74142 7.9094,22.457533 l 0,12.03459 -6.23654,6.45066 -6.23654,6.45066 -6.15369,-6.49122 z m 4.44655,-34.590863 c 1.6223,-2.04102 1.57617,-2.08655 -0.49243,-0.48584 -2.17253,1.68112 -2.86343,2.73787 -1.78998,2.73787 0.27081,0 1.29791,-1.01339 2.28241,-2.25203 z m 1.13787,-4.18229 c 0,-0.70779 -0.25881,-1.28689 -0.57515,-1.28689 -0.31633,0 -0.93788,0.5791 -1.38121,1.28689 -0.44333,0.70776 -0.18452,1.28685 0.57513,1.28685 0.75968,0 1.38123,-0.57909 1.38123,-1.28685 z M 128.3606,121.40866 c 0.0655,-2.83111 -0.66104,-6.94651 -1.61448,-9.14527 -1.61566,-3.72594 -1.4629,-4.38223 2.24653,-9.65152 3.54026,-5.028973 4.4416,-8.412453 8.15661,-30.618543 4.6683,-27.904404 5.06708,-29.50434 6.71485,-26.939538 0.60652,0.944065 1.11176,3.060369 1.12274,4.702914 0.0221,3.290458 8.03755,39.076124 8.62317,38.498334 0.20091,-0.19825 4.47638,-21.40348 9.50104,-47.122687 5.02468,-25.719239 9.46272,-47.0848716 9.86236,-47.4791726 1.88034,-1.85531 2.47395,0.86129 13.84469,63.3587886 4.61437,25.362171 5.94854,34.717481 4.41213,30.938121 -0.28773,-0.70781 -4.06972,-20.68643 -8.4044,-44.396998 -4.33471,-23.710542 -8.22651,-43.97873557 -8.64846,-45.0403985 -0.78617,-1.9781181 -9.29238,38.7674155 -15.64898,74.9601065 -1.95786,11.14749 -3.99127,20.26818 -4.51869,20.26818 -0.94004,0 -5.87867,-19.48911 -9.12988,-36.028912 -1.95936,-9.96784 -2.15729,-9.497064 -6.34374,15.090082 -1.5391,9.03915 -3.10466,17.46273 -3.47904,18.71912 -0.4235,1.42124 -0.0569,2.1506 0.97037,1.93031 0.96262,-0.20642 3.25858,3.47581 5.50637,8.831043 l 3.85532,9.18506 -5.71698,7.2225 c -3.14432,3.97237 -6.10209,7.2225 -6.57278,7.2225 -0.4707,0 -1.27506,-1.0134 -1.78748,-2.25202 -0.85517,-2.06721 -1.01939,-2.0408 -2.00096,0.32174 -0.7977,1.91992 -1.0391,1.2661 -0.95031,-2.57374 z"
         id="path5276"
         inkscape:connector-curvature="0" />
    </g>
  </g>
</svg>
