<?xml version="1.0" encoding="UTF-8" standalone="no"?>
<!-- Created with Inkscape (http://www.inkscape.org/) -->

<svg
   xmlns:osb="http://www.openswatchbook.org/uri/2009/osb"
   xmlns:dc="http://purl.org/dc/elements/1.1/"
   xmlns:cc="http://creativecommons.org/ns#"
   xmlns:rdf="http://www.w3.org/1999/02/22-rdf-syntax-ns#"
   xmlns:svg="http://www.w3.org/2000/svg"
   xmlns="http://www.w3.org/2000/svg"
   xmlns:sodipodi="http://sodipodi.sourceforge.net/DTD/sodipodi-0.dtd"
   xmlns:inkscape="http://www.inkscape.org/namespaces/inkscape"
   width="64"
   height="64"
   viewBox="0 0 64 64.000002"
   id="svg2"
   version="1.1"
   inkscape:version="0.91 r13725"
   sodipodi:docname="button_sword.svg">
  <defs
     id="defs4">
    <linearGradient
       id="linearGradient4186"
       osb:paint="solid">
      <stop
         style="stop-color:#3d748b;stop-opacity:1;"
         offset="0"
         id="stop4188" />
    </linearGradient>
  </defs>
  <sodipodi:namedview
     id="base"
     pagecolor="#ffffff"
     bordercolor="#666666"
     borderopacity="1.0"
     inkscape:pageopacity="0.0"
     inkscape:pageshadow="2"
     inkscape:zoom="4"
     inkscape:cx="-3.16256"
     inkscape:cy="15.889914"
     inkscape:document-units="px"
     inkscape:current-layer="layer4"
     showgrid="true"
     units="px"
     inkscape:showpageshadow="false"
     inkscape:snap-bbox="true"
     inkscape:bbox-nodes="true"
     inkscape:object-nodes="true"
     inkscape:window-width="1024"
     inkscape:window-height="745"
     inkscape:window-x="-8"
     inkscape:window-y="-8"
     inkscape:window-maximized="1">
    <inkscape:grid
       type="xygrid"
       id="grid3336"
       spacingx="2"
       spacingy="2.0000001"
       empspacing="1" />
  </sodipodi:namedview>
  <metadata
     id="metadata7">
    <rdf:RDF>
      <cc:Work
         rdf:about="">
        <dc:format>image/svg+xml</dc:format>
        <dc:type
           rdf:resource="http://purl.org/dc/dcmitype/StillImage" />
        <dc:title />
      </cc:Work>
    </rdf:RDF>
  </metadata>
  <g
     inkscape:label="Layer 1"
     inkscape:groupmode="layer"
     id="layer1"
     transform="translate(0,-988.3622)">
    <rect
       ry="8.0000162"
       rx="0"
       y="996.36218"
       x="4"
       height="52.000019"
       width="56"
       id="rect3365-0"
       style="fill:#8b3d50;fill-opacity:1" />
    <rect
       ry="8.0000162"
       rx="0"
       y="992.36218"
       x="4"
       height="52.000019"
       width="56"
       id="rect3365"
       style="fill:#e8446b;fill-opacity:1" />
  </g>
  <g
     inkscape:groupmode="layer"
     id="layer4"
     inkscape:label="Layer 3">
    <g
       id="g5299">
      <g
         id="g4177">
        <path
           id="rect4157"
           style="fill:#ffffff;fill-opacity:1;stroke:none;stroke-width:0.5;stroke-linecap:round;stroke-linejoin:round;stroke-miterlimit:4;stroke-dasharray:none;stroke-opacity:1"
           d="m 30,42 4,0 0,8 -4,0 z m -6,-4 16,0 0,4.000001 -16,0 z m 4,-26.000001 8,0 0,26.470589 -8,0 z M 28.000017,50 l 7.999966,0 c 9e-6,0 1.7e-5,0 1.7e-5,0 l 0,3.9999 c 0,1e-4 -8e-6,1e-4 -1.7e-5,1e-4 l -7.999966,0 C 28.000008,54 28,54 28,53.9999 L 28,50 c 0,0 8e-6,0 1.7e-5,0 z M 28,12 l 4,-4 4,4 z" />
      </g>
    </g>
  </g>
</svg>
