<?xml version="1.0" encoding="UTF-8" standalone="no"?>
<!-- Created with Inkscape (http://www.inkscape.org/) -->

<svg
   xmlns:osb="http://www.openswatchbook.org/uri/2009/osb"
   xmlns:dc="http://purl.org/dc/elements/1.1/"
   xmlns:cc="http://creativecommons.org/ns#"
   xmlns:rdf="http://www.w3.org/1999/02/22-rdf-syntax-ns#"
   xmlns:svg="http://www.w3.org/2000/svg"
   xmlns="http://www.w3.org/2000/svg"
   xmlns:sodipodi="http://sodipodi.sourceforge.net/DTD/sodipodi-0.dtd"
   xmlns:inkscape="http://www.inkscape.org/namespaces/inkscape"
   width="64"
   height="64"
   viewBox="0 0 64 64.000002"
   id="svg2"
   version="1.1"
   inkscape:version="0.91 r13725"
   sodipodi:docname="enemy_snail.svg">
  <defs
     id="defs4">
    <linearGradient
       id="linearGradient4186"
       osb:paint="solid">
      <stop
         style="stop-color:#3d748b;stop-opacity:1;"
         offset="0"
         id="stop4188" />
    </linearGradient>
  </defs>
  <sodipodi:namedview
     id="base"
     pagecolor="#ffffff"
     bordercolor="#666666"
     borderopacity="1.0"
     inkscape:pageopacity="0.0"
     inkscape:pageshadow="2"
     inkscape:zoom="5.6568542"
     inkscape:cx="38.524464"
     inkscape:cy="36.623073"
     inkscape:document-units="px"
     inkscape:current-layer="layer1"
     showgrid="true"
     units="px"
     inkscape:showpageshadow="false"
     inkscape:snap-bbox="true"
     inkscape:bbox-nodes="true"
     inkscape:object-nodes="true"
     inkscape:window-width="1024"
     inkscape:window-height="745"
     inkscape:window-x="-8"
     inkscape:window-y="-8"
     inkscape:window-maximized="1">
    <inkscape:grid
       type="xygrid"
       id="grid3336"
       spacingx="2"
       spacingy="2.0000001"
       empspacing="1" />
  </sodipodi:namedview>
  <metadata
     id="metadata7">
    <rdf:RDF>
      <cc:Work
         rdf:about="">
        <dc:format>image/svg+xml</dc:format>
        <dc:type
           rdf:resource="http://purl.org/dc/dcmitype/StillImage" />
        <dc:title></dc:title>
      </cc:Work>
    </rdf:RDF>
  </metadata>
  <g
     inkscape:label="Layer 1"
     inkscape:groupmode="layer"
     id="layer1"
     transform="translate(0,-988.3622)">
    <g
       id="g4146"
       transform="matrix(0.19907418,0,0,0.21584176,1.4689934,974.07596)">
      <path
         style="fill:#ecd18a"
         d="m 195.09521,354.44435 -18.22021,0.5772 -5.34553,-1.76365 c -2.94003,-0.97 -6.87753,-2.7897 -8.75,-4.04376 l -3.40447,-2.28013 -31.875,-0.116 -31.875,-0.116 -7.667634,-2.05266 c -4.217199,-1.12898 -10.701179,-3.39426 -14.408845,-5.03396 l -6.741211,-2.98129 -7.77545,-7.19869 -7.77545,-7.1987 -4.387565,-8.93082 L 42.481279,304.375 39.88302,292.5 37.284761,280.625 37.727656,259.0625 38.17055,237.5 l -3.00275,0 c -1.651514,0 -5.318013,-0.68406 -8.147775,-1.52015 L 21.875,234.45971 15.504738,228.12861 9.1344756,221.79752 6.4501233,214.62295 3.7657709,207.44837 3.0603091,200.91169 2.3548474,194.375 4.6149236,190 6.875,185.625 l 3.773416,-0.37014 3.773415,-0.37014 3.275908,3.49514 3.275907,3.49514 2.87203,7.99451 2.87203,7.99452 3.002264,3.56798 3.002264,3.56799 4.109541,0 4.109541,0 1.507025,-11.97281 c 0.828864,-6.58504 2.834025,-17.45317 4.455915,-24.15138 1.621889,-6.69822 4.312815,-15.8022 5.979835,-20.23106 1.66702,-4.42886 4.755525,-11.46886 6.863345,-15.64443 l 3.832399,-7.59193 4.196896,-3.68493 4.196898,-3.68492 1.43899,-3.70677 c 0.791444,-2.03872 3.528691,-10.70776 6.082772,-19.26452 l 4.643784,-15.557753 -2.105723,-3.66901 -2.105722,-3.669008 1.939951,-2.960739 1.939951,-2.96074 4.880459,0 4.880459,0 2.42535,3.083334 2.42535,3.083332 -0.597616,3.126229 -0.597617,3.126229 -2.285856,0.725502 -2.285855,0.725503 -1.42881,7.127436 c -0.785845,3.920085 -2.446305,11.190525 -3.68991,16.156535 l -2.2611,9.02909 7.051256,-0.69411 7.051258,-0.69411 5.46966,1.97751 c 3.00831,1.08764 5.63074,1.97752 5.82763,1.97752 0.19688,0 0.74578,-2.39062 1.21976,-5.3125 0.47399,-2.92187 1.98492,-9.46757 3.35761,-14.546 l 2.4958,-9.233493 -1.41137,-3.09764 -1.41138,-3.097638 0.7483,-2.357691 0.7483,-2.357692 2.29201,-1.226643 2.29201,-1.226645 3.89972,1.359451 3.89972,1.35945 1.22362,2.286344 c 0.67298,1.257488 1.22361,3.271445 1.22361,4.475456 l 0,2.189113 -2.5132,2.675179 -2.5132,2.67518 -3.3293,16.433269 -3.3293,16.43326 3.23249,5.97213 3.2325,5.97211 1.5317,7.85856 1.5317,7.85858 -1.45564,18.46563 c -0.8006,10.1561 -2.55981,27.43225 -3.90936,38.39144 -1.34955,10.95918 -2.45927,21.40709 -2.46606,23.21756 l -0.0123,3.29179 2.99037,0.57164 2.99037,0.57165 0.77674,-5.73843 c 0.42719,-3.15613 1.90283,-9.33246 3.2792,-13.72516 1.37634,-4.39271 4.32178,-11.42029 6.5454,-15.61683 l 4.04292,-7.63009 8.62908,-9.10505 8.62906,-9.10505 10.12094,-4.95319 10.12092,-4.9532 7.5,-1.93049 7.5,-1.93048 11.875,-0.74636 11.875,-0.74635 11.19331,1.49502 11.19332,1.495 11.01543,4.25417 c 6.0585,2.33979 13.57798,5.75591 16.70997,7.59138 l 5.69451,3.3372 7.73024,7.64053 7.73025,7.64053 4.71398,8.9994 4.71399,8.9994 2.465,9.63805 2.465,9.63806 0,13.44008 0,13.44008 -1.79436,9.37829 -1.79436,9.37829 -2.7729,6.66918 -2.7729,6.66917 -5.28712,6.89656 -5.2871,6.89657 4.80294,2.05115 4.80293,2.05113 2.59995,4.17729 2.59995,4.1773 -0.69275,3.68991 -0.69274,3.6899 -2.58023,2.74653 -2.58022,2.74651 -7.41534,3.32781 -7.41535,3.32781 -15.2977,2.93479 c -8.41374,1.61414 -22.8486,3.85598 -32.07749,4.98185 l -16.77978,2.04705 -18.22022,0.57719 z"
         id="path4152"
         inkscape:connector-curvature="0" />
      <path
         style="fill:#a55744"
         d="m 195.09521,354.44435 -18.22021,0.5772 -5.34553,-1.76365 c -2.94003,-0.97 -6.87753,-2.7897 -8.75,-4.04376 l -3.40447,-2.28013 -31.875,-0.116 -31.875,-0.116 -7.667634,-2.05266 c -4.217199,-1.12898 -10.701179,-3.39426 -14.408845,-5.03396 l -6.741211,-2.98129 -7.77545,-7.19869 -7.77545,-7.1987 -4.387565,-8.93082 L 42.481279,304.375 39.88302,292.5 37.284761,280.625 37.727656,259.0625 38.17055,237.5 l -3.00275,0 c -1.651514,0 -5.318013,-0.68406 -8.147775,-1.52015 L 21.875,234.45971 15.504738,228.12861 9.1344756,221.79752 6.4501233,214.62295 3.7657709,207.44837 3.0603091,200.91169 2.3548474,194.375 4.6149236,190 6.875,185.625 l 3.773416,-0.37014 3.773415,-0.37014 3.275908,3.49514 3.275907,3.49514 2.87203,7.99451 2.87203,7.99452 3.002264,3.56798 3.002264,3.56799 4.109541,0 4.109541,0 1.507025,-11.97281 c 0.828864,-6.58504 2.834025,-17.45317 4.455915,-24.15138 1.621889,-6.69822 4.312815,-15.8022 5.979835,-20.23106 1.66702,-4.42886 4.755525,-11.46886 6.863345,-15.64443 l 3.832399,-7.59193 4.196896,-3.68493 4.196898,-3.68492 1.43899,-3.70677 c 0.791444,-2.03872 3.528691,-10.70776 6.082772,-19.26452 l 4.643784,-15.557753 -2.105723,-3.66901 -2.105722,-3.669008 1.939951,-2.960739 1.939951,-2.96074 4.880459,0 4.880459,0 2.42535,3.083334 2.42535,3.083332 -0.597616,3.126229 -0.597617,3.126229 -2.285856,0.725502 -2.285855,0.725503 -1.42881,7.127436 c -0.785845,3.920085 -2.446305,11.190525 -3.68991,16.156535 l -2.2611,9.02909 7.051256,-0.69411 7.051258,-0.69411 5.46966,1.97751 c 3.00831,1.08764 5.63074,1.97752 5.82763,1.97752 0.19688,0 0.74578,-2.39062 1.21976,-5.3125 0.47399,-2.92187 1.98492,-9.46757 3.35761,-14.546 l 2.4958,-9.233493 -1.41137,-3.09764 -1.41138,-3.097638 0.7483,-2.357691 0.7483,-2.357692 2.29201,-1.226643 2.29201,-1.226645 3.89972,1.359451 3.89972,1.35945 1.22362,2.286344 c 0.67298,1.257488 1.22361,3.271445 1.22361,4.475456 l 0,2.189113 -2.5132,2.675179 -2.5132,2.67518 -3.3293,16.433269 -3.3293,16.43326 3.23249,5.97213 3.2325,5.97211 1.5317,7.85856 1.5317,7.85858 -1.45564,18.46563 c -0.8006,10.1561 -2.55981,27.43225 -3.90936,38.39144 -1.34955,10.95918 -2.45927,21.40709 -2.46606,23.21756 l -0.0123,3.29179 2.99037,0.57164 2.99037,0.57165 0.77674,-5.73843 c 0.42719,-3.15613 1.90283,-9.33246 3.2792,-13.72516 1.37634,-4.39271 4.32178,-11.42029 6.5454,-15.61683 l 4.04292,-7.63009 8.62908,-9.10505 8.62906,-9.10505 10.12094,-4.95319 10.12092,-4.9532 7.5,-1.93049 7.5,-1.93048 11.875,-0.74636 11.875,-0.74635 11.19331,1.49502 11.19332,1.495 11.01543,4.25417 c 6.0585,2.33979 13.57798,5.75591 16.70997,7.59138 l 5.69451,3.3372 7.73024,7.64053 7.73025,7.64053 4.71398,8.9994 4.71399,8.9994 2.465,9.63805 2.465,9.63806 0,13.44008 0,13.44008 -1.79436,9.37829 -1.79436,9.37829 -2.7729,6.66918 -2.7729,6.66917 -5.28712,6.89656 -5.2871,6.89657 4.80294,2.05115 4.80293,2.05113 2.59995,4.17729 2.59995,4.1773 -0.69275,3.68991 -0.69274,3.6899 -2.58023,2.74653 -2.58022,2.74651 -7.41534,3.32781 -7.41535,3.32781 -15.2977,2.93479 c -8.41374,1.61414 -22.8486,3.85598 -32.07749,4.98185 l -16.77978,2.04705 -18.22022,0.57719 z m -71.84107,-9.60864 c 9.69602,0.0904 21.07557,-0.19594 25.2879,-0.63621 l 7.65876,-0.8005 -3.79701,-4.32456 -3.79703,-4.32457 -3.71255,-8.10586 -3.71256,-8.10586 -2.50214,-14.9082 c -1.37617,-8.19951 -3.0382,-16.31819 -3.6934,-18.04149 l -1.19127,-3.1333 -2.83493,-1.10754 c -1.5592,-0.60915 -4.17082,-2.37396 -5.80361,-3.9218 l -2.9687,-2.81424 -2.52288,-5.70342 -2.52289,-5.7034 0.77332,-15.03989 0.77333,-15.03987 2.67983,-18.75 2.67984,-18.75 0.50818,-22.5639 0.5082,-22.56391 -1.88096,-5.33118 c -1.03452,-2.93215 -2.97948,-6.87392 -4.32212,-8.7595 l -2.44118,-3.42831 3.75591,-18.0516 3.75592,-18.0516 2.40895,-1.714965 c 1.32493,-0.943231 2.40895,-2.305189 2.40895,-3.026574 0,-0.721385 -0.93092,-2.340276 -2.06874,-3.597535 L 124.61253,86.25 l -2.85749,0 -2.8575,0 -0.8462,1.369191 -0.84621,1.369191 1.61108,3.010327 1.61108,3.010326 -1.47156,6.557985 c -0.80936,3.60689 -2.68479,11.22356 -4.16763,16.92594 l -2.69606,10.36796 -1.98352,-0.86857 c -1.09094,-0.47773 -5.18137,-1.74673 -9.08985,-2.82001 l -7.106331,-1.95144 -6.384324,2.04162 -6.384325,2.04163 0.643265,-2.08958 c 0.353796,-1.14926 1.465885,-5.46457 2.471309,-9.58957 1.005424,-4.125 2.77369,-11.89803 3.92948,-17.273411 l 2.101436,-9.773412 3.053043,-1.160765 3.053043,-1.160766 -2.250578,-3.809926 -2.25058,-3.809928 -3.749317,0.369104 -3.749317,0.369104 -0.432569,2.281885 -0.43257,2.281886 2.104241,1.538658 2.104241,1.538658 -6.3094,21.003573 -6.3094,21.00356 -4.898513,4.55089 -4.898513,4.55089 -3.345676,6.63774 c -1.840123,3.65075 -5.016561,11.16941 -7.058754,16.70813 l -3.713077,10.0704 -3.102742,15.32392 c -1.706508,8.42816 -3.10588,16.6595 -3.109713,18.29186 -0.0039,1.63237 -0.592774,5.07732 -1.308755,7.65545 l -1.301784,4.6875 -5.066245,0 -5.066245,0 -4.050666,-4.0625 -4.050665,-4.0625 -2.789525,-8.40228 -2.789525,-8.40227 -3.693657,-3.108 -3.693657,-3.10801 -1.8167368,0.69715 -1.816737,0.69715 -1.1690453,4.23392 -1.1690453,4.23394 0.5831045,5.3292 0.5831046,5.3292 3.4869665,7.5 3.4869658,7.5 3.473454,4.1074 3.473454,4.10739 3.913605,2.02617 3.913605,2.02616 6.875,0.75527 6.875,0.75527 -0.341503,2.48616 C 41.34567,239.50623 40.857854,248.5 40.44946,258.125 l -0.742535,17.5 2.046988,11.71053 2.046987,11.71053 3.86176,9.27636 3.861761,9.27637 6.279179,6.87042 6.27918,6.87043 5.245994,3.07436 c 2.885296,1.69089 8.576046,4.24214 12.64611,5.66942 l 7.400116,2.59508 8.125,0.99648 c 4.46875,0.54804 16.05811,1.07038 25.75414,1.16073 z m -22.69301,-65.08756 -3.813877,0.37316 -2.234653,-2.46926 -2.234654,-2.46926 -1.084352,-4.7789 -1.084351,-4.77889 -0.10765,-21.25 c -0.05921,-11.6875 -0.0046,-21.8125 0.121375,-22.5 0.125965,-0.6875 0.656697,1.84375 1.179407,5.625 0.52271,3.78125 1.03776,14.46875 1.144555,23.75 l 0.194174,16.875 1.491947,4.375 1.491948,4.375 3.733156,0 3.733155,0 1.58823,-3.31373 c 0.87352,-1.82253 2.14672,-6.25868 2.82934,-9.85811 L 108.75,257.15877 108.8746,239.51689 108.9992,221.875 110,225 l 1.0008,3.125 0.11736,13.75 0.11737,13.75 -1.19656,7.30628 -1.19656,7.30627 -2.2337,4.56873 -2.23371,4.56872 -3.81387,0.37315 z M 93.085937,168.11502 89.375,168.77691 87.1875,167.45135 C 85.984375,166.72229 85,165.57144 85,164.89391 l 0,-1.23187 2.517517,1.34733 2.517519,1.34734 4.669981,-0.82997 4.669983,-0.82997 -1.289063,1.37818 c -0.708984,0.758 -2.958984,1.67602 -5,2.04007 z m -18.762376,-4.6248 -2.551439,0.36524 -0.886061,-0.88606 C 70.398727,162.48206 70,161.29597 70,160.33364 l 0,-1.74969 3.4375,0.39552 3.4375,0.39553 0,1.875 0,1.875 -2.551439,0.36522 z M 109.43028,163.75 c -0.83249,0 -1.88861,-0.375 -2.34695,-0.83334 -0.45833,-0.45832 -0.83333,-1.58332 -0.83333,-2.5 l 0,-1.66666 2.91667,0 c 1.60416,0 3.28678,0.37012 3.73915,0.82249 l 0.82249,0.82248 -1.39221,1.67752 c -0.76572,0.92263 -2.07334,1.67751 -2.90582,1.67751 z"
         id="path4150"
         inkscape:connector-curvature="0" />
      <path
         style="fill:#231f18"
         d="m 194.375,354.4175 -16.25,0.60101 -5.34553,-1.76212 c -2.94003,-0.96918 -6.87753,-2.80147 -8.75,-4.07176 l -3.40447,-2.30963 -31.875,-0.0747 -31.875,-0.0747 -9.76744,-2.70709 -9.76744,-2.7071 -7.485849,-3.98991 -7.485848,-3.98991 -5.871712,-6.42973 -5.871711,-6.42965 -3.502429,-7.16497 -3.502427,-7.16497 -2.694753,-9.63358 L 38.23064,286.875 38.17782,262.31432 38.125,237.75366 32.808501,237.02519 27.492002,236.29672 22.690151,233.84701 17.888299,231.39729 13.820924,226.7648 9.7535496,222.13231 7.44237,216.74055 C 6.1712211,213.77509 4.6153339,208.51061 3.9848425,205.04171 L 2.8384947,198.73464 3.7472259,193.76517 4.655957,188.7957 6.2310344,186.89785 7.8061117,185 l 2.8033713,0 2.803371,0 3.185287,2.50555 3.185289,2.50555 3.457747,9.05695 3.457749,9.05695 3.134402,3.4375 3.1344,3.4375 4.141136,0 4.141136,0 0.0229,-0.9375 c 0.0126,-0.51563 0.840273,-6.68708 1.839284,-13.71435 0.99901,-7.02726 2.969149,-17.29177 4.378085,-22.81004 1.408936,-5.51826 4.016809,-14.11242 5.795271,-19.09815 1.778462,-4.98572 4.96137,-12.34151 7.073128,-16.34618 l 3.839558,-7.28124 4.280924,-3.52869 4.280924,-3.5287 6.016088,-19.81508 L 84.792251,88.125 83.021126,86.151574 C 82.047006,85.06619 81.25,83.278244 81.25,82.17836 l 0,-1.999789 1.964286,-1.964285 1.964285,-1.964286 3.382582,0 3.382582,0 2.778133,1.94588 2.778132,1.94588 0,3.60824 0,3.60824 -2.417095,1.692999 -2.417095,1.693 -3.687583,15.975191 -3.687581,15.97519 6.068825,-0.83468 6.068825,-0.83467 6.366834,2.11472 c 3.50175,1.16309 6.52062,1.91678 6.70859,1.67486 0.18797,-0.24192 1.96046,-7.07146 3.93885,-15.17676 l 3.59708,-14.73691 -1.5484,-2.47938 -1.54839,-2.47938 1.30722,-2.442563 c 0.71897,-1.343408 2.2787,-2.951485 3.46607,-3.573502 l 2.15885,-1.13094 2.67875,1.012536 2.67875,1.012535 2.00875,2.86789 c 1.10481,1.577339 2.00875,3.835834 2.00875,5.018877 l 0,2.150987 -2.50275,1.752993 -2.50275,1.752992 -3.52529,17.438535 -3.52529,17.43854 2.92052,4.40084 2.92051,4.40083 1.68549,8.05579 1.68548,8.05578 -0.96208,16.86022 c -0.52917,9.27314 -2.14323,26.98524 -3.58683,39.36024 -1.4436,12.375 -2.7989,24.00822 -3.01177,25.85162 l -0.38705,3.35162 2.5834,0.69381 c 1.42088,0.3816 2.94142,0.7015 3.37898,0.71089 0.43757,0.01 1.1904,-2.61592 1.67299,-5.834 0.48258,-3.21808 2.00245,-9.5462 3.37748,-14.0625 l 2.50006,-8.21144 4.43855,-8.01441 4.43854,-8.01442 8.8884,-8.91033 8.88841,-8.91033 7.73256,-4.04345 7.73256,-4.04345 9.76744,-2.52726 9.76744,-2.52725 16.25,-0.16343 16.25,-0.16342 8.125,1.57297 c 4.46875,0.86513 10.09375,2.43859 12.5,3.49657 2.40625,1.05797 8.3125,3.73592 13.125,5.951 l 8.75,4.0274 6.875,5.86338 6.875,5.86339 5.8906,8.73269 5.89059,8.73269 3.42432,10.28883 3.42434,10.28883 0.0601,19.375 0.0601,19.375 -2.9388,9.35987 c -1.61635,5.14793 -3.95176,11.33543 -5.18981,13.75 -1.23805,2.41457 -4.25198,6.91047 -6.69763,9.99087 l -4.44664,5.60073 4.63644,2.22023 4.63644,2.22021 2.1875,2.63003 2.1875,2.63002 0,5.3754 0,5.3754 -3.7305,3.13901 -3.7305,3.13902 -7.207,2.71653 -7.207,2.71654 -15.625,2.96104 c -8.59375,1.62857 -23.21875,3.83979 -32.5,4.91381 -9.28125,1.07403 -24.1875,2.22324 -33.125,2.55379 z m -5,-2.01695 11.25,0.0979 22.5,-2.54942 22.5,-2.54941 15.25243,-3.06988 15.25242,-3.06989 6.8832,-2.57532 6.88319,-2.57534 3.26272,-3.87751 3.26272,-3.87753 -0.81134,-3.23258 c -0.44623,-1.77793 -1.37411,-3.91072 -2.06198,-4.73954 -0.68786,-0.82883 -3.79521,-2.73875 -6.90522,-4.24428 l -5.65455,-2.73732 -0.8068,1.25581 c -0.44373,0.69069 -4.18179,3.15996 -8.30679,5.48728 l -7.5,4.23147 -10.625,0 -10.625,0 -6.54875,-2.42949 -6.54875,-2.42948 -5.92137,-4.47539 -5.92139,-4.47538 -4.71188,-6.22013 -4.71188,-6.22013 -2.49743,-7.5 -2.49744,-7.5 -0.77813,-7.5 -0.77815,-7.5 1.45106,-9.375 1.45106,-9.375 2.95704,-6.46894 2.95702,-6.46892 5.14069,-5.57699 5.14068,-5.57697 6.39126,-2.74944 6.39125,-2.74945 6.53411,-0.67437 6.53411,-0.67439 6.4236,2.13357 6.4236,2.13359 5.53784,5.53783 5.53784,5.53783 2.5845,6.90772 2.58451,6.90772 -0.007,5.2656 c -0.004,2.89609 -0.60376,7.4148 -1.33317,10.04159 l -1.32622,4.77597 -4.51038,4.99245 c -2.4807,2.74584 -6.07159,5.79978 -7.97974,6.78653 l -3.46884,1.79411 -4.8935,0 -4.8935,0 -3.12438,-2.45764 -3.12437,-2.45762 -1.56223,-3.77154 -1.56221,-3.77154 0.81643,-4.35199 0.81643,-4.35197 1.19782,-0.74029 1.1978,-0.74029 -1.24622,3.27782 C 240.5608,263.68774 240,266.58863 240,268.33137 l 0,3.16863 4.25,4.25 4.25,4.25 3.93708,0 3.93707,0 3.37543,-1.76835 c 1.85648,-0.9726 5.16905,-3.64448 7.36126,-5.9375 l 3.98582,-4.16915 1.43437,-3.75 1.43435,-3.75 0.0172,-6.9777 0.0173,-6.9777 -2.76659,-6.43111 -2.76659,-6.43111 -5.27609,-4.86333 -5.27607,-4.86332 -4.76318,-1.57199 -4.76316,-1.57199 -7.66842,0.61555 -7.66843,0.61555 -5.20537,2.65559 -5.20538,2.65559 -4.44524,4.57711 -4.44523,4.57711 -3.00854,6.37087 -3.00854,6.37088 -1.36659,7.41707 C 205.61496,260.87146 205,267.08141 205,270.59195 l 0,6.3828 1.92857,7.45012 c 1.06072,4.09758 3.07965,9.84077 4.48652,12.76265 l 2.55795,5.31253 5.54502,5.70541 5.54503,5.70542 8.40595,3.98206 8.40596,3.98206 12.03544,0 12.03544,0 7.0376,-4.84697 c 3.87067,-2.66584 8.68353,-6.72162 10.69525,-9.01283 2.01172,-2.29123 5.19717,-6.79283 7.0788,-10.00356 1.88161,-3.21074 4.7992,-9.56123 6.48352,-14.11218 l 3.0624,-8.27446 0.63471,-15.12234 0.6347,-15.12234 -1.46555,-8.41586 -1.46556,-8.41586 -3.47365,-8.75355 -3.47364,-8.75355 -5.7692,-7.95499 -5.7692,-7.95497 -9.49794,-6.603 -9.49792,-6.603 -5.8926,-2.32435 c -3.24093,-1.2784 -10.3926,-3.51179 -15.8926,-4.9631 l -10,-2.63875 -16.875,-0.004 -16.875,-0.004 -8.125,2.24254 c -4.46875,1.23338 -11.76289,3.99646 -16.2092,6.14014 l -8.0842,3.89762 -8.99136,8.54091 -8.99138,8.54092 -4.99835,9.63492 -4.99835,9.63491 -1.90405,6.875 c -1.04722,3.78125 -2.27256,9.26439 -2.72298,12.18475 l -0.81894,5.30975 2.2969,0.74261 c 1.2633,0.40845 6.2764,2.64167 11.14021,4.9627 l 8.8433,4.22008 6.52989,6.9044 6.52988,6.9044 3.80872,8.13902 3.80871,8.13903 0.53945,5.30914 0.53946,5.30912 -3.01767,-8.39928 c -1.65973,-4.61958 -4.45855,-10.80708 -6.21962,-13.75 -1.76106,-2.9429 -4.49647,-6.84529 -6.07868,-8.672 -1.5822,-1.8267 -5.51848,-5.28643 -8.74728,-7.6883 l -5.87054,-4.36703 -7.87946,-2.53678 c -4.3337,-1.39522 -9.70759,-2.90206 -11.94196,-3.34851 L 120,246.05016 l 0,8.26446 0,8.26448 1.94131,4.64735 1.94131,4.64735 3.29255,3.4375 c 1.8109,1.89063 3.78773,3.4375 4.39293,3.4375 l 1.10037,0 -0.79347,-2.5 -0.79348,-2.5 0.68384,0 c 0.3761,0 1.73724,2.10938 3.02474,4.6875 1.2875,2.57813 2.94256,7.21875 3.6779,10.3125 0.73535,3.09375 1.99286,10.125 2.79447,15.625 l 1.45748,10 3.59359,8.6158 c 1.97646,4.73869 5.13115,10.83451 7.01041,13.54628 l 3.41682,4.93047 5.06712,3.45584 c 2.78691,1.90071 7.59836,4.33861 10.69211,5.41754 l 5.625,1.96171 11.25,0.0979 z M 243.125,257.5 c -0.34375,0 -0.625,-0.28125 -0.625,-0.625 0,-0.34375 0.28125,-0.625 0.625,-0.625 0.34375,0 0.625,0.28125 0.625,0.625 0,0.34375 -0.28125,0.625 -0.625,0.625 z m -116.61206,87.19083 c 13.55087,0.0556 25.77199,-0.19552 27.15803,-0.55798 l 2.5201,-0.65902 -4.12051,-5.17442 -4.12051,-5.17441 -3.33028,-7.61231 -3.33028,-7.6123 -2.41563,-14.2627 c -1.32859,-7.84448 -3.00081,-15.78263 -3.71604,-17.64031 l -1.30042,-3.37764 -3.4912,-1.8161 c -1.92016,-0.99886 -4.73781,-3.15119 -6.26145,-4.78296 l -2.77025,-2.96685 -1.91051,-5.41498 -1.91051,-5.41496 0.53959,-13.29944 0.53959,-13.29945 2.68921,-20 2.68921,-20 0.82696,-18.125 0.82696,-18.125 -0.77682,-7.22959 -0.77681,-7.22958 -3.70392,-5.95835 -3.70391,-5.95834 3.92847,-18.37396 3.92848,-18.373944 2.37778,-1.738683 2.3778,-1.738685 -1.40719,-3.088468 -1.4072,-3.088469 -2.54775,-0.666248 -2.54774,-0.666249 -2.19613,1.605849 -2.19613,1.60585 1.53947,3.378778 1.53948,3.378778 -1.86159,8.945661 c -1.02388,4.9201 -2.78249,12.0394 -3.90804,15.82065 -1.12554,3.78125 -2.27348,7.25126 -2.55097,7.71114 l -0.50454,0.83615 -3.65302,-1.82238 -3.65303,-1.82236 -6.293671,-0.7454 -6.293674,-0.74539 -3.832252,1.58737 -3.832254,1.58737 -0.686388,-0.68639 -0.686387,-0.68639 3.904712,-17.29436 L 90.10649,90.625 93.386956,87.911624 96.667422,85.198247 94.554895,81.974124 92.442368,78.75 l -3.568128,0 -3.568129,0 -1.381873,1.665056 -1.381874,1.665056 1.814064,2.397444 1.814063,2.397444 0.0302,2.5 c 0.01661,1.375 -1.115617,6.15625 -2.516066,10.625 -1.400449,4.46875 -3.957526,12.87807 -5.682392,18.68739 l -3.136122,10.56238 -4.932845,4.22234 -4.932845,4.22233 -4.261633,8.96528 c -2.343899,4.93091 -5.962329,14.33802 -8.040957,20.90469 l -3.779321,11.93942 -2.79653,17.43558 -2.79653,17.43559 -1.190784,1.5625 -1.190782,1.5625 -4.386849,0 -4.386847,0 -4.210097,-4.464 C 25.644544,210.5808 23.75,208.07065 23.75,207.45789 c 0,-0.61277 -1.14372,-4.17098 -2.541601,-7.90714 l -2.5416,-6.79304 -3.253854,-3.25386 -3.253854,-3.25385 -1.768329,0 -1.7683286,0 -1.9374905,4.63706 -1.9374907,4.63708 0.800477,6.30042 0.800477,6.30044 3.0889299,6.40144 3.0889299,6.40142 5.058886,5.7472 5.058887,5.7472 4.61548,1.2819 c 2.538515,0.70504 6.791387,1.28504 9.450827,1.28886 l 4.835346,0.007 -0.947613,10.9375 c -0.521187,6.01563 -0.862879,16 -0.759314,22.1875 l 0.188299,11.25 1.29593,7.5 c 0.712761,4.125 2.191211,10.3125 3.285443,13.75 1.094232,3.4375 3.53601,9.34375 5.426174,13.125 l 3.436661,6.875 6.805207,6.43545 6.805206,6.43547 6.146657,3.10663 c 3.380662,1.70867 9.521658,4.00628 13.646658,5.10582 4.125,1.09954 9.1875,2.19767 11.25,2.44029 2.0625,0.24262 14.83707,0.48659 28.38794,0.54217 z M 99.52004,280 l -2.882571,0 -2.058307,-2.2744 -2.058307,-2.27441 -1.1296,-6.16309 -1.1296,-6.1631 0.05597,-20 0.05598,-20 0.784475,5.625 c 0.431461,3.09375 0.930339,13.21875 1.108618,22.5 l 0.324142,16.875 1.304683,4.0721 1.304681,4.07209 2.479796,1.32715 2.4798,1.32715 1.98872,-1.64925 c 1.09381,-0.90708 2.84476,-3.61799 3.891,-6.02424 l 1.90226,-4.375 0.74313,-22.5 0.74314,-22.5 1.07475,11.12871 1.07475,11.1287 -0.84142,10.08934 c -0.46278,5.54914 -1.43514,12.44723 -2.1608,15.32908 l -1.31938,5.23972 -2.42667,2.60473 -2.42667,2.60472 -2.88257,0 z M 93.75,167.85357 l -3.125,0.67635 -2.8125,-1.09968 c -1.546875,-0.60483 -2.81195,-1.25843 -2.811277,-1.45247 6.72e-4,-0.19402 3.096083,-0.38256 6.878692,-0.41896 l 6.87747,-0.0662 -0.941193,0.84231 c -0.517656,0.46332 -2.347442,1.14672 -4.066192,1.5187 z M 74.375,163.3136 c -0.6875,0.21766 -2.02519,-0.0948 -2.972644,-0.69416 l -1.722645,-1.08993 0.858917,-1.38976 0.858914,-1.38975 2.517884,0 2.517884,0 -0.404155,2.08391 C 75.80687,161.98007 75.0625,163.09593 74.375,163.3136 Z m 37.1875,-0.48229 c -0.51562,0.26336 -1.953,0.24933 -3.19417,-0.0312 l -2.25668,-0.51005 0.47958,-1.45752 0.47959,-1.45749 2.71459,-0.39944 2.71459,-0.39944 0,1.88817 c 0,1.0385 -0.42187,2.10365 -0.9375,2.36702 z"
         id="path4148"
         inkscape:connector-curvature="0" />
    </g>
  </g>
</svg>
