<?xml version="1.0" encoding="UTF-8" standalone="no"?>
<!-- Created with Inkscape (http://www.inkscape.org/) -->

<svg
   xmlns:dc="http://purl.org/dc/elements/1.1/"
   xmlns:cc="http://creativecommons.org/ns#"
   xmlns:rdf="http://www.w3.org/1999/02/22-rdf-syntax-ns#"
   xmlns:svg="http://www.w3.org/2000/svg"
   xmlns="http://www.w3.org/2000/svg"
   xmlns:sodipodi="http://sodipodi.sourceforge.net/DTD/sodipodi-0.dtd"
   xmlns:inkscape="http://www.inkscape.org/namespaces/inkscape"
   id="svg18874"
   version="1.1"
   inkscape:version="0.91 r13725"
   width="32"
   height="32"
   viewBox="0 0 32 32"
   sodipodi:docname="compass.svg">
  <metadata
     id="metadata18880">
    <rdf:RDF>
      <cc:Work
         rdf:about="">
        <dc:format>image/svg+xml</dc:format>
        <dc:type
           rdf:resource="http://purl.org/dc/dcmitype/StillImage" />
        <dc:title></dc:title>
      </cc:Work>
    </rdf:RDF>
  </metadata>
  <defs
     id="defs18878" />
  <sodipodi:namedview
     pagecolor="#ffffff"
     bordercolor="#666666"
     borderopacity="1"
     objecttolerance="10"
     gridtolerance="10000"
     guidetolerance="10"
     inkscape:pageopacity="0"
     inkscape:pageshadow="2"
     inkscape:window-width="1024"
     inkscape:window-height="745"
     id="namedview18876"
     showgrid="true"
     inkscape:snap-bbox="true"
     inkscape:bbox-paths="true"
     inkscape:bbox-nodes="true"
     inkscape:snap-path-mask="true"
     inkscape:snap-path-clip="true"
     inkscape:snap-object-midpoints="false"
     inkscape:snap-center="true"
     inkscape:zoom="4"
     inkscape:cx="67.097905"
     inkscape:cy="10.815017"
     inkscape:window-x="-8"
     inkscape:window-y="-8"
     inkscape:window-maximized="1"
     inkscape:current-layer="layer3">
    <inkscape:grid
       type="xygrid"
       id="grid27404"
       dotted="false"
       empspacing="1" />
  </sodipodi:namedview>
  <g
     inkscape:groupmode="layer"
     id="layer3"
     inkscape:label="Layer 2">
    <path
       inkscape:connector-curvature="0"
       d="m 15,3 2,0 0,-2 -2,0 z m -1,5 4,0 0,-5 -4,0 z m -1,3 6,0 0,-3 -6,0 z m -1,4 8,0 0,-4 -8,0 z"
       style="fill:#e65763;fill-opacity:1"
       id="rect27996-3" />
    <path
       inkscape:connector-curvature="0"
       d="m 15,29 2,0 0,2 -2,0 z m -1,-5 4,0 0,5 -4,0 z m -1,-3 6,0 0,3 -6,0 z m -1,-4 8,0 0,4 -8,0 z"
       style="fill:#249de4;fill-opacity:1"
       id="rect27427" />
  </g>
</svg>
